<?xml version="1.0" encoding="UTF-8"?><svg id="_图层_1" xmlns="http://www.w3.org/2000/svg" viewBox="0 0 538.95 241.87"><defs><style>.cls-1{fill:#000;stroke-width:0px;}</style></defs><path class="cls-1" d="M409.96,69.88c3.42.26,6.59,1,7.86,4.81.05.14.28.22.33.36.62,1.72,2.77.32,3.34,1.44.79,1.57-1.41,1.96-1.68,3.1-.08.34.66,1.31,1.01,1.99.73,1.42,1.17,2.41.64,3.14-.82,1.12-1.57,3.01-2.55,3.14-2.54.34-4.61,1.98-7.12,2.14-.95.06-1.91,0-3.07,0,0,2.08.18,3.91-.05,5.68-.22,1.72.22,3.35,1.12,4.51,1.39,1.78,1.09,3.25-.11,4.69-1.07,1.28-.57,3.04-1.66,4.32-.62.73-.62,1.84.15,2.65.68.72.82,1.39.03,2.05-.62.51-.48,1.16-.48,1.8-.01,1.66.52,3.57-.14,4.91-.81,1.66.21,2.83.15,4.22-.12,2.88.09,5.72-.93,8.58-.9,2.52.94,5.52-1.04,8.06-.3.39-.16,1.75.08,1.84,2.43.92-.82,2.67.67,4.02.67.61.07,2.53-.58,4-.65,1.48-.79,3.76.43,5.62.83,1.27.84,3.31.17,4.21-1.09,1.45-.78,2.8-.78,4.19,0,3.69-.6,7.24-1.88,10.69-.16.44-.21.97-.13,1.43.69,3.94-1.2,7.62-1.17,11.54.01,1.92-1,3.94-.86,6.06.15,2.11-1,3.87-1.7,5.76-.27.73-.21,1.58-.27,2.38-.04.5.21,1.19-.04,1.46-2.66,2.94-2.1,7.12-4.02,10.29-.63,1.04-.78,2.86-2.68,2.8.96,2.41-.55,3.06-2.33,2.63-1.31-.32-2.39-1.28-3.38-2.65-1.71-2.35-2.73-4.59-2.52-7.48.15-1.98,0-3.98.04-5.97.02-1.11-.07-2.11.78-3.19.64-.81,1.64-2.25.24-3.57-.25-.23-.24-1.22,0-1.41,3.41-2.67,1.33-7.39,3.89-10.39.28-.32.09-1.38-.24-1.82-1.17-1.52-1.17-2.98-.02-4.41.51-.63.33-1.27.29-1.87-.2-2.93.5-5.6,1.74-8.26.55-1.18.13-2.72.14-4.04.07-7.35,1.76-14.61,1.19-22-.13-1.66-.84-3.64.91-5.05-1.77-1.4-.64-2.63-.1-4.21.56-1.63.08-3.61.14-5.43.03-.88,1.7-1.28.58-2.64-3.25,2.26-5.04,5.85-7.61,8.76-2.41,2.73-4.41,5.79-6.9,8.42-1.9,2-2.9,4.71-5.24,6.32-.57.39-.9.93-.77,1.67.25,1.39-.49,1.7-1.7,1.59-.67-.06-1.47.02-1.27.97.36,1.66-.9,2.35-1.79,3.26-1.62,1.66-3.86,3.03-4.76,5.01-.95,2.09-4.02,2.09-3.97,4.74-3.38,1.74-4.26,5.63-6.95,8.02-2.85,2.53-5.43,5.36-8.13,8.06-2.7,2.7-5.24,5.58-8.15,8.04-2.47,2.09-5.01,4.07-7.34,6.34-.7.68-1.63.9-2.08,2.07-.5,1.3-1.89,1.66-3.45,1.1-.21-.96.83-1.14,1.21-1.7.45-.66,1.25-1.16,1.5-1.87.26-.73.02-1.64.08-2.47.02-.27.33-.52.51-.78,1.41-2.1,4.03-3.02,4.63-6.09.44-2.26,2.94-3.91,3.89-6.32.39-.99,1.57-1.67,2.39-2.49.82-.82,2.17-1.53,2.38-2.48,1.01-4.61,4.66-7.4,7.08-11.03.15-.23-.09-.81.07-.94,4.26-3.36,6.3-8.26,8.91-12.76,2.73-1.05,2.61-4.36,4.72-5.94,2.22-1.66,3.37-4.28,5.2-6.34,2.26-2.53,4.07-5.5,5.8-8.49,2.04-3.52,4.52-6.8,7.02-10.03.89-1.15,1.66-2.35,2.09-3.63.69-2.07,1.94-3.63,3.5-5.02,1.45-1.3,2.71-2.78,3.47-4.54.89-2.06,1.93-4.08,3.62-5.42,1.74-1.39,1.2-3.53,2.35-5.07.49-.65-.62-1.2-1.18-.93-5.11,2.48-11.04,3.02-15.59,6.89-2.54,2.16-2.72,2.13-5.52,1.97-1.74-.1-3.08.52-3.7,1.82-1.11,2.33-3.94,2.18-5.29,4.09-.23.33-1.25.14-1.9.12-.68-.02-1.24.05-1.75.62-1.44,1.61-3.42,1.96-5.41,2.57-3.52,1.07-6.77,2.91-9.93,4.85-.53.32-.86,1.23-1.58.9-.7-.32-1.62-.86-1.8-1.5-.57-1.97-1.93-3.47-2.66-5.38-2.56-6.75-4.27-13.8-7.27-20.39-.51-1.11.24-1.83,1.55-1.57,1.36.27,2.75.76,3.95,1.28,2.61,1.15,5.04,1.19,7.23-.34,2.83-1.98,6.28-1.59,9.28-2.87.86-.37,1.8.02,1.89-1.52.05-.88,1.85-.78,2.08-.48,1.22,1.62,2.5.2,3.17-.17,1.67-.92,3.21-2.24,5.2-1.82,1.67.35,1.66-2.05,3.47-1.61,1.28.31,2.79-.27,4.1-1.06,1.17-.71,2.94-.22,3.73-1.8,3.84-.78,7.15-2.77,10.65-4.38,1.64-.75,4.18-.65,6.23.22.14.06.23.32.36.33.96.05,5.72-4.41,5.73-5.39.02-4.48-.18-8.97.11-13.44.09-1.44-2.12-2.18-.66-3.93.6-.72-.52-2.06-1.09-3.03-1.05-1.78.5-4-.76-5.64-1.16-1.51-3.1-2.65-3.37-4.57-.26-1.77-.9-3.03-2.21-4.1-.37-.31-1-.82-.93-1.07.69-2.42-1.16-3.92-2.13-5.62-1-1.74-.77-4.19-2.9-5.28,1.63-2.83-1.08-5.08-1.03-7.73.04-1.85,1.32-2.11,2.56-2.94,1.37-.92,1.54.05,2.21.48.31.2.33.63,1.05.53,3.65-.49,4.33-.21,6.11,2.25.26.35.34.78.82.99,4.91,2.14,8.22,6.03,11.16,10.31.46.67,1.18.42,1.58.77.69.61,1.63,1.09,1.47,2.37-.16,1.31-.58,3.26.08,3.85,1.6,1.43-.63,2.17-.17,3.3.29.71-.02,1.64.06,2.47.7,7.05-1.2,13.96-1.13,21,.02,2.43-1.39,4.87-.63,7.51Z"/><path class="cls-1" d="M438.6,98.97c.15-1.08-.11-2.11.63-3.24,1.25-1.92,3.42-3.34,3.44-6.05,0-.56.96-1.3,1.63-1.63,3.02-1.49,4.73-4.07,6.29-6.9,1.88-3.4,3.47-6.97,6.18-9.9,1.22-1.32,1.72-3.27,2.59-4.89,1.29-2.41,2.21-5.07,3.82-7.34.57-.8.53-1.74.27-2.33-1.23-2.81-1.66-5.91-3.4-8.55-1.69-2.57-2.58-5.54-3.78-8.87,2.14.2,3.75-.05,5.77.68,2.49.9,5.55.17,8.35.3,1.41.06,2.86-.49,4.24.57,1.35,1.04,2.4,2.63,2.63,3.87.96,5.03,3.81,9.07,6.1,13.43.31.59,1.07,1.08.99,1.53-.28,1.6,1.76,3.42-.73,4.89-1.46.86-2.07,2.7-2.2,4.5-.03.48.18,1.14.63.86,2.77-1.7,5.77-.42,8.63-.78,2.19-.27,4.55.6,6.56-.99.2-.16.81-.16.95,0,1.25,1.41,2.48-.26,3.66.02,5.05,1.22,7.3,1.31,11.7.14.7-.19,1.22-.27,1.71.3.48.57,1.3.84,1.65.29,1.38-2.17,2.97-1.42,4.88-.88,1.29.36,2.87.4,4.31-.24,2.04-.9,4.18-.06,5.3,1.28,1.1,1.31,2.48,2.14,3.6,3.33.68.72,1.26,1.33,1.23,2.5-.05,2.26,1.29.07,1.51.37.39.51,1.55.53,1.07,1.73-.75,1.87-1.24,3.69-.78,5.9.38,1.81-2.92,3.77-5.07,3.09-1.17-.37-1.75-.85-3.29-.21-1.82.75-4.47.98-6.57-.36-1.08-.68-2.76.21-3.24-.43-1.2-1.6-1.86.26-2.76.09-2.03-.37-4.26.8-6.13-.82-1.73,1.13-3.33-.9-5.07-.2-1.87.75-3.35-.79-5.02-1.14-5.02-1.05-10.03-.94-15.03-.73-1.65.07-2.57-1.25-4.07-1.13-1.48.12-2.98.08-4.47,0-.8-.04-1.6-2.05-1.15-3.14.28-.68.51-1.36-.16-1.66-.68-.31-2.03-.52-2.23.12-.71,2.21-2.74,2.85-4.14,4.24-2.66,2.64-8.36,7.51-11.33,9.54-1.55,1.05-3.6.13-4.4,1.23-.83,1.14-1.45,2.92-2.63,3.24-2.75.73-4.37,3.83-7.56,3.4-.79-.11-1.27.29-1.15,1.11.41,2.81-1.16.97-2,.88-.33-.04-.66,0-.99,0-.69.03-1.02-.31-1-1Z"/><path class="cls-1" d="M485.59,207.22c2.02,1.06-.9,1.56-.29,2.79.53,1.06-.39,2.92.22,3.85,1.08,1.64,1.36,2.83-.11,4.21.66,2.97-1.14,5.09-2.48,7.42-1.92,3.33-1.83,3.34-5.53,1.45-1.7-.87-3.39-1.62-4-3.74-.25-.85-.94-1.68-2.1-1.73-.55-.02-.71-.38-.87-.93-1.29-4.5-2.8-7.25-5.56-10.1-.81-.84-1.31-1.61-1.49-2.89-.26-1.84-1.83-3.2-2.85-4.76-3.21-4.94-6.25-9.98-9.32-15-1.04-1.7-.82-3.99-2.45-5.44-.07-.06-.08-.33-.07-.33,1.27-.36,2.19-1.19,3.12-2.09.62-.6,1.74-.53,2.28-.12,2.25,1.74,4.77.42,7.12.84,1.01.18,1.39-.69,1.98-1.2.25-.22.47-.47.7-.7.82,2.86,4.15.9,5.67,3.15,2.76,4.08,6.05,7.82,9.28,11.56,1.57,1.82,2.45,4.19,4.53,5.59-.52,2.65,2.34,3.94,2.62,6.42.1.87-.69,1.14-.41,1.77Z"/><path class="cls-1" d="M452.8,127.85c2.08,0,3.9-.02,5.73,0,1.48.02,2.97.14,3.9-1.4.53-.88,1.44-.58,2.23-.59,1.65-.02,3.31.07,4.96-.02,2.63-.15,4.59,1.08,6.24,2.92,2.07,2.32,2.86,2.58,5.63,4.15,2.02,1.15,4.42,2.15,5.63,4.25.62,1.08.89,1.88,2.29,1.65.97-.15.74.73,1.03,1.24,1.73,3.02,2.19,6.44,2.82,9.73.27,1.41,1.58,2.48,1.12,4.03-.31,1.06-1.98,2.04-.2,3.25.03.02-.26.64-.33.62-1.26-.25-1.69.85-2.39,1.46-2.18,1.9-3.04,2.01-5.4.55-.22-.14-.37-.39-.56-.59.76-.69,1.56-1.55.36-2.35-1.01-.67-1.53,1.21-2.53.92-1.12-.33-1.69-1.09-2.02-2.39-.33-1.32-1.42-1.51-2.83-.62-3.13,1.98-6.4,3.56-10.21,4.2-1.64.28-2.97,2.24-5.17,1.88-.72-.11-.41,1.08-.76,1.51-.69.86-1.41.45-2.02-.24-.36-.42-1.22-.86-.26-1.38,3.78-2.06,5.39-5.83,7.35-9.3.5-.88,2.2-1.09,1.61-2.46-.48-1.13-.83-2.44-2.06-3.12-3.3-1.81-5.69-4.51-7.68-7.65-.97-1.53-2.88-1.88-4.2-3.1-2.11-1.96-3.15-4.02-2.32-7.19Z"/><path class="cls-1" d="M438.6,98.97c-.03.69.31,1.02,1,1-1,2.05-3.5.21-4.68,1.8-.1-.28-.33-.6-.28-.85.29-1.38,1.65-1.91,2.49-2.85.12-.13.67,1.05,1.47.91Z"/><path class="cls-1" d="M149.68,3.7c.53.33,1.02.23,1.47.18,1.66-.16,3.05.53,4.12,1.61.79.79,1.79,1.07,2.63,1.19,1.16.17,1.86.56,2.36,1.55.39.77.85,1.52,1.91,1.44.13-.01.31.07.4.17,1.78,1.94,4.21,3.16,5.65,5.53.87,1.43,2.35,2.48,3.38,3.88.49.67.81,1.47,1.45,2.08.53.5-.15,1.54.62,2.15.15.12.19.77-.2,1.07-.31.23-.25.55-.25.86-.03,1.46.28,2.99-.93,4.18.22,2.04-1.17,3.83-.94,5.83.09.81-.39,1.32-.57,1.95-.49,1.69-.37,3.39-.45,5.1-.06,1.41.35,2.86-.26,4.21-.55,1.22.29,2.67-.69,3.8.18,2.28-.77,4.47-.5,6.77.2,1.7-.17,3.35-.83,4.93-.06.14-.09.29-.11.43-.02.16-.01.32,0,.48.23,4.91-.25,9.8-.5,14.7-.08,1.65,0,3.31.55,4.83.42,1.16.4,2.27.42,3.43.02,1.68.05,3.37,0,5.05-.07,1.88.72,3.65.53,5.57-.18,1.82,0,3.68-.05,5.52-.02.77,1.05,1.32.2,2.35-.47.57.47,1.63.32,2.58-.14.86.04,1.76-.04,2.64-.31,3.09.3,6.13.6,9.16.16,1.7.05,3.46.44,5.08.68,2.83.32,5.65.39,8.47.02.95.63,1.71.55,2.69-.07.89-.35,1.89.42,2.7.12.13.1.5,0,.7-.49,1-.11,1.98,0,2.97.1,1.03.05,2.08.01,3.12-.03,1.01.67,1.86.52,2.93-.13.97-.27,2.03.44,2.92.04.05.01.16,0,.24-.31,2.69.75,5.29.5,7.97-.05.51-.21,1.09.33,1.55.17.15.22.64.11.88-.47,1.01.04,2-.02,2.97-.28,4.6.76,9.15.53,13.74-.03.61-.21,1.29.47,1.72-.59.36-.53.94-.47,1.48.06.6-.29,1.29.36,1.77-1.1,1.8.55,3.53.12,5.32-.16.66.28,1.43-.45,1.99-.12.09-.13.5-.03.68.91,1.64.28,3.4.47,5.1.05.45-.17.94.33,1.31.29.21.09.5-.03.81-.62,1.68-.45,3.46-.19,5.13.35,2.26.52,2.23-.06,4.7-.03.15-.1.41-.05.44,1.1.69.14,1.48-.07,1.99-.5,1.21-.22,2.56-.87,3.73-.16.3-.19.69-.4,1.04-.3.49-.64,1.03-.16,1.75.22.33.15,1-.24,1.54-.51.71-.74,1.61-1.17,2.39-.34.6-.77,1.35-1.5,1.32-1.22-.05-1.43.94-1.67,1.61-.63,1.75-1.75,3.27-2.27,5.07-.5,1.72-1.53,3.22-2.19,4.86-.45,1.11-1.52,1.84-1.62,3.2-.04.56-.95,1.13-1.75,1.38-.92.29-1.52.78-1.57,1.96-.03.89-1.18,1.63-2.09,1.65-1.92.04-3.84,0-5.77.02-.68,0-1.15-.41-1.14-.92.01-.62-.5-.97-.51-1.48-.01-.51-.11-.9-.48-1.26-.12-.12-.1-.5,0-.7,1.03-2.28.2-4.69.48-7.01.07-.59-.21-1.01-.47-1.5-.26-.5.46-1.26.31-1.37-.79-.63.27-.86.22-1.39-.14-1.39-.85-2.57-1.16-3.88-.21-.86-.46-1.96-1.45-2.52-.69-.39-.02-1.45-.82-1.82.23-1.04-.34-1.75-.94-2.5-.31-.39-.4-.95-.62-1.42-.56-1.23-.56-1.45.53-2.01.36-.19.63-.42.93-.65.18-.14.36-.51.56-.33,1.1.97,2.13-.35,3.23-.05.64.17,1.36-.27,1.97-.35,1.28-.17,1.42-.93,1.55-1.83.08-.63-.2-1.64.09-1.84.95-.61-.23-1.25.19-1.73.43-.48.01-1.2.63-1.7.28-.23.06-1.06.06-1.62,0-6.81-.02-13.62.03-20.43,0-.97-.42-2.01.43-2.95.43-.48-.59-.79-.49-1.46.15-1.02.01-2.08.05-3.12.03-.91-.28-1.77-.08-2.74.17-.83.37-1.82-.31-2.73-.31-.42-.03-1.24-.11-1.86-.14-.98.43-2.03-.42-2.96-.41-.45.45-.72.44-1.21-.02-2.72,0-5.45,0-8.17-.88-1.46-.48-3.07-.44-4.61.04-1.55-.52-3.16.33-4.65-1.05-2,.34-4.31-.8-6.31-.17-.3,0-.57.22-.83.35-.39.33-.89.04-1.28-.2-.27-.38-.49-.31-.84.32-1.66-.61-3.19-.51-4.85.11-1.68-.03-3.36.03-5.04.11-3.04-.62-5.97-1.09-8.93-.04-.23-.23-.31-.12-.7.92-3.3.87-3.71.41-7.74-.07-.63.59-1.23-.05-2.01-.43-.53-.26-1.42-.51-2.17-.29-.86-.11-1.95.14-2.98.52-2.15.38-4.38.04-6.57-.05-.31-.3-.68-.28-1.07.33-6.51-.77-12.99-.49-19.51.07-1.52-.28-3.11.07-4.55.77-3.14.27-6.29.4-9.43.04-.98.3-2-.43-2.95-.42-.55.78-1.31-.03-1.98.35-2.21-.57-4.33-.5-6.53.04-1.22-.62-2.36-.5-3.65.1-1.08.18-2.13.51-3.16.68-2.13.64-2.77.08-5.15-.14-.6-.22-1.32-.04-1.89.87-2.71.23-5.49.46-8.22.12-1.34-.69-2.52-.53-3.89.16-1.42.04-2.88.04-4.32,0-1.36-.08-2.73.03-4.08.06-.83-.54-1.39-.62-2.18-.09-.84-1.48-1.45-2.31-1.16-2.37.84-4.94,1.18-7.02,2.82-.23.18-.67.53-.96.49-1.76-.26-2.91.96-4.04,1.83-1.73,1.33-3.84,1.61-5.71,2.5-.76.36-1.65-.12-2.16-.51-2.12-1.6-4.26-3.21-5.18-5.96-.19-.57-.15-.72.17-1.05.67-.68,1.48-.94,2.41-1.17,1.9-.47,3.81-.96,5.74-1.16,1.27-.13,1.96-1.64,3.36-1.2.87-.74,1.86-1.27,2.89-1.73,1.23-.55,2.44-1.12,3.85-1.18,1.24-.05,2.24-.82,3.19-1.55,1.38-1.07,2.8-2.06,4.34-2.88,1.3-.69,1.52-.56,1.54.74.01.87,0,1.74,0,2.55Z"/><path class="cls-1" d="M118.37,134.75c-.65-.08-1.21-.11-1.84.1-1.56.52-3.04,1.24-4.77,1.31-.98.04-1.95.65-2.88,1.11-1.2.58-2.71.48-3.65,1.66-.13.16-.62-.01-.92.06-1.84.46-3.54,1.24-4.96,2.52-.89.8-.9,1.74-.01,2.61.43.42.72,1.01,1.45,1.15.31.06.74.46.81.76.25,1.18,1.26,1.66,2.11,1.92,1.49.45,1.71,1.91,2.62,2.8.33.32.35,1.41.06,1.81-.76,1.05-.06,2.23-.48,3.18-.47,1.07-.52,2.13-.4,3.19.2,1.91-.72,3.66-.55,5.58.18,1.91-.03,3.85.06,5.76.06,1.15-.47,2.38.34,3.45-.63,1.06-.32,2.23-.36,3.36-.04,1.2.04,2.41-.02,3.6-.18,3.8.85,7.54.48,11.34-.08.83.36,1.75-.43,2.47-.12.11-.14.47.1.63.42.27.27.69.35,1.06.21.91-.48,1.59-.53,2.45-.05.83.32,1.68-.29,2.53-.31.43-.21,1.23-.14,1.84.24,2.21-.43,4.28-1.03,6.32-.37,1.26-.57,2.73-1.88,3.54-.08,1.74-1.37,2.82-2.27,4.1-.23.32-.01,1.01-.81.87-.53-.09-1.05.03-1.5-.48-1.11-1.26-2.41-2.28-2.79-4.16-.23-1.16-1.12-2.22-1.47-3.46-.39-1.4-.35-2.22.09-3.64.45-1.43.75-2.91,1.03-4.38.1-.53.3-1.01.44-1.5.33-1.16.7-2.34.58-3.63-.14-1.51-.42-3.18.07-4.52.49-1.33-.15-2.83.85-3.97.04-.05.04-.18,0-.23-.65-.99.01-1.98,0-2.97,0-1.04,0-2.08,0-3.12,0-.39-.01-.72-.31-1.09-.36-.44-.33-1.04.19-1.45.74-.58.8-1.39.49-2.11-.49-1.14-.61-2.18.06-3.28.14-.24.16-.69.03-.93-.78-1.41-.51-2.79-.18-4.25.1-.45-.18-1.11-.32-1.64-.39-1.51-.23-3.18-1.2-4.54-.36-.5-.33-.97.1-1.48.7-.82.7-1.83.67-2.85-.04-1.36.06-2.73-.03-4.08-.08-1.22-.38-2.39-1.36-3.28-1.09-.99-1.76-2.25-2.24-3.64-.08-.24-.03-.33.01-.52.18-.93-.07-1.28-.83-1.42-.6-.11-1.2.11-1.84-.22-1.1-.55-1.69-1.25-2.07-2.5-.45-1.5-.52-3.1-1.25-4.52-.16-.32.07-.82-.04-1.18-.24-.79.38-1.31.58-1.94.12-.35.5-.8,1.12-.71,1,.15,1.71-.47,2.47-1,.86-.6,1.89-1.02,2.63-1.74,1.05-1.02,2.02-2.16,2.8-3.4.72-1.14,1.77-2.06,2.2-3.41.13-.41.59-.96,1.22-1.01.29-.02.34-.19.47-.4.94-1.52.51-3.12-1.18-3.34-1.22-.16-2.37-.63-3.62-.62-.94,0-1.68.71-2.69.54-.79-.13-1.62.06-2.47.34-1,.33-2.17-.53-3.34-.49-.21,0-.6-.42-.62-.66-.13-1.63-.08-3.26.88-4.66.26-.38.47-.76.67-1.17.43-.91.8-1.77,2.19-1.62,1.04.11,1.95-.76,2.38-1.61.38-.74.88-1.29,1.44-1.79,1.39-1.26,2.25-2.82,3.1-4.49,1.28-2.52,2.86-4.89,4-7.48,1.02-2.32,2.11-4.66,2.14-7.28.01-.81.34-1.42,1.03-1.8.65-.36,1.32-.95,2.03-.08,1.52-.3,2.24.85,3.15,1.69.63.59,1.1,1.38,1.93,1.73.69.29,1.37.78,1.42,1.39.06.77-.13,1.76-.61,2.34-1.13,1.37-1.83,3.02-3.16,4.26-.94.88-1.68,1.99-2.41,3.07-1.52,2.25-3.01,4.53-5.12,6.26-.86.71-1.09,1.65-1.48,2.53-.44,1.01.25,1.65,1.29,2.32,1.34.86,2.87.83,4.27,1.31.74.26,1.86.47,2.7-.34.22-.21.65-.06.77-.62.25-1.2,1.31-1.87,2.06-2.75,1.83-2.16,3.61-4.35,5.16-6.74,1.43-2.2,2.65-4.5,3.82-6.84.31-.62.76-1.17,1.48-1.37.35-.1,2.41.68,2.68,1.05,1.36,1.88,2.6,3.88,3.46,6.01.82,2.05-.03,3.3-2.16,4.56-1.12.66-2.2,1.35-3.06,2.46-1.22,1.57-2.82,2.84-4.18,4.3-.57.61-1.21,1.14-1.68,1.92-.35.59-1.16,1.04-1.33,1.82-.16.71-1.04.3-1.2.91-1.04-.31-1.36.63-1.58,1.18-.28.72-.79,1.13-1.25,1.64-1.57,1.74-3.15,3.48-4.73,5.21-.11.12-.34.25-.32.34.26,1.53-.8,2.09-1.83,2.85-.78.57-.63,1.44.27,1.94.68.38,1.41,1.4,2.35.33.94.08,1.69-.81,2.69-.49.58.19.89-.29,1.16-.64.55-.7,1.23-.89,2.08-.8,1.25.12,2.4-.06,3.49-.85,1.09-.8,1.36-1.4.85-2.67-.42-1.03-.97-1.99-1.27-3.09-.12-.44-.25-.88-.25-1.32,0-.74.44-1.1,1.15-1.19,1.89-.22,3.63.52,5.34,1.04,4.43,1.35,5.33,4.04,6.03,7.67.19,1.01.54,2.02.81,3.01.52,1.89.97,3.81,1.14,5.8.13,1.49-.55,2.53-1.27,3.58-.5.73-1.19,1.65-2.3.63-.1-.09-.34-.15-.42-.1-1.85,1.17-2.94-.18-3.83-1.36-1.08-1.42-1.9-3.04-2.73-4.63-.23-.44-.11-1.06-.15-1.63Z"/><path class="cls-1" d="M9.8,48.13c.87-.24,2.03.44,3.02-.38.62.36,1.36.47,1.79,1.18.75,1.21,1.36,2.5,2.19,3.67.49.7.96,1.42,1.6,1.95.98.82,1.54,1.95,2.3,2.92.24.31.71.8.62,1.41-.26,1.93.5,3.94-.46,5.82-.07.13-.04.31-.03.47.29,2.68-.72,5.29-.49,7.97.2,2.35-.69,4.62-.51,7.01.19,2.47.04,4.96.04,7.44s.09,4.81-.04,7.2c-.05,1,.51,1.92.11,2.99-.21.55-.46,1.13-.72,1.62-.24.46-.47.98-.28,1.3.72,1.2-.15,2.31-.06,3.47.11,1.35.03,2.72.03,4.08,0,1.28.26,2.63-.05,3.83-.75,2.9-.34,5.81-.38,8.7-.01,1.04-.73,1.85-.56,2.93.16,1.02.31,2.18-.03,3.09-.61,1.63-.16,3.27-.45,4.86-.85,4.81-.32,9.64-.39,14.46,0,.58-.89,1.04-.11,1.81.58.56-.5,1.19-.45,1.92.05.68.17,1.42-.46,1.97-.08.07-.02.31,0,.47.21,3.39-.59,6.73-.55,10.13.03,2.88-.12,5.84-.51,8.67-.58,4.2-.21,8.37-.33,12.55-.03,1.03-.67,1.87-.55,2.93.12,1.03-.23,2.16.08,3.1.75,2.33.31,4.69.4,7.02.04.89.33,1.87-.42,2.71-.16.18-.19.77.19,1.09.11.1.28.32.25.36-1.25,1.56.25,3.09.06,4.66-.21,1.74-.05,3.52-.05,5.28s.13,3.38-.03,5.04c-.2,1.94-1.13,3.63-2.7,4.81-.33.25-.73.51-1.11.77-1.46.99-1.32.87-2.53-.51-.92-1.06-1.24-2.44-2.23-3.45-.3-.3-.83-.95-.54-1.68.21-.52-.3-.83-.48-1.24-.38-.89-1.29-1.59-.96-2.73-.57-.26-.39-.97-.84-1.34-1.53-1.25-2.04-3.16-2.82-4.83-.72-1.55-.24-3.39.42-4.95.59-1.36.91-2.81,1.6-4.15.5-.97.58-2.19.65-3.32.1-1.51-.37-3.19.14-4.52.5-1.33-.17-2.83.85-3.97-.37-.67-.42-1.24-.06-2.03.3-.66.18-1.59.04-2.37-.26-1.38.55-2.57.51-3.89-.03-1.36-.3-2.81.07-4.06.48-1.64.1-3.3.46-4.86.71-3.06.32-6.12.41-9.18.03-.94.66-1.68.56-2.69-.09-.88-.75-1.67-.15-2.77.44-.8-.12-2.09.12-3.07.7-2.81.35-5.64.44-8.46.03-.92.47-1.74.58-2.67.1-.83-1.18-1.34-.24-2.35.44-.48-.03-1.71.17-2.54.91-3.76.32-7.56.38-11.34,0-.66.86-1.21.14-2.06-.36-.42-.09-1.39-.05-2.11.03-.46-.19-.94.17-1.37.56-.68.27-1.19-.21-1.83-.47-.63-.71-1.47-.9-2.25-.13-.51-.17-1.14.44-1.48,1.06-.59.83-1.74,1.19-2.63.35-.89.54-1.76-.13-2.61-.08-.1-.13-.38-.07-.43,1.02-.93-.04-2.33.77-3.29.24-.29.26-.53.03-.83-.55-.71-.57-1.41.02-2.12.29-.34.14-.77.12-1.14-.32-9.23.79-18.44.49-27.67-.03-.88-.06-1.77,0-2.64.07-.98-.37-2.06.47-2.92-.75-.91-.49-1.8-.01-2.73.38-.75-.48-1.25-.48-1.96-.01-1.14-.64-2.17-.79-3.26-.19-1.44-.78-2.62-1.76-3.6-1.08-1.08-.59-2.58-1.16-3.81-.28-.61.98-1.57,1.86-1.59.72-.02,1.44,0,2.35,0Z"/><path class="cls-1" d="M19.9,24.27c.71-.43,1.54.17,2.09-.56.13-.17.74-.22.88-.08,1.03,1.08,2-.56,2.99-.02.84-.78,2-.62,2.99-.89.93-.25,1.86-.84,2.91-.55,1.64-1.16,3.52-.92,5.37-1.01.6-.03,1.15-.68,1.77-.9,2.4-.84,4.42-2.28,6.3-3.94.58-.51,1.27-.84,1.87-1.32,1.15-.91,2.63-.77,3.7.37,1.04,1.1,2.36,1.84,3.31,3.11.87,1.16,2.37,1.86,3.65,2.69.23.15.58.18.77.43.73.94,1.86,1.41,2.68,2.22,1.16,1.14,1.14,2.54.84,4.07-.55,2.87-1.82,5.55-2.22,8.46-.05.33-.15.56-.34.83-1.05,1.53-1.07,3.4-1.6,5.1-.42,1.35-.14,2.88-.58,4.09-.68,1.88.22,3.91-.86,5.65.13,1.49-.31,2.93-.4,4.37-.08,1.33-.91,2.52-.56,3.88-.95,1.11-.36,2.43-.46,3.65-.11,1.22.14,2.47-.8,3.53-.48.54-.03,1.08.25,1.66.24.51-.12,1.37.97,1.12.28-.06.41.18.6.3.5.32.51.84.39,1.27-.19.64-.97.48-1.17.29-.98-.9-1.13.09-1.17.56-.11,1.19-.04,2.4-.04,3.75,1.18.15,2.21.23,3.16-.85.68-.77,1.99-.7,2.65-1.72.55-.85,1.43-1.37,2.41-1.68.56-.18.85-.68,1.24-1.06,1.28-1.24,2.54-2.44,4.15-3.32,1.34-.73,2.19-2.18,3.56-3,.47-.28.95-.43,1.3-.27.47.21.91.65.76,1.33-.07.3.03.71-.14.89-1.07,1.2-1.29,2.88-2.5,4.04-1.41,1.34-3.04,2.53-3.94,4.36-2.29,1.44-3.36,4.22-5.89,5.41-.49,1.29-2.26,1.5-2.54,3-.04.19-.3.37-.49.51-1.88,1.42-3.24,3.4-5.19,4.76-.41.28-.88.61-.98,1.27-.06.4-.52.65-.99.86-1.64.75-2.82,1.98-3.85,3.52-.67,1.01-1.6,1.93-2.58,2.78-2.22,1.95-4.28,4.1-6.31,6.26-.76.81-1.35,1.74-2.35,2.37-.7.44-1.09.37-1.86.1-1.66-.6-2.02-2.28-3.18-3.26-.76-2.44-2.57-4.34-3.48-6.73-.3-.79-.58-1.63-.32-2.21.52-1.16.86-2.38,1.42-3.5.41-.82,1.16-1.52,2.3-1.27.89.19,1.91-.42,2.71.45.1.11.42.08.64-.11,1.67-1.46,3.8-2.22,5.4-3.86.97-1,2.47-1.5,3.47-2.59.49-.53,1.04-.98.84-1.82-.09-.35.06-.62.35-.82.76-.52.76-1.04.15-1.73-.36-.41-.47-.94-.04-1.52.37-.51.97-1.15.03-1.76-.07-.05.04-.33-.02-.46-.48-1.07,1-1.93.27-3.08-.58-.91-.09-2.02-.28-3.01-.13-.69,1.22-1.34.03-2.01,0-.77.62-1.37.5-2.2-.13-.84-.42-1.23-1.15-.92-1.57.66-3.19,1.28-4.6,2.2-.72.47-1.33.72-2.14.67-.48-.03-.97-.05-1.44,0-1.69.2-2.58-.7-3.21-2.12-.43-.97-1.11-1.89-.9-2.97.15-.82-.52-1.25-.54-1.97-.05-1.48.56-2.51,2.01-2.52,2.64-.02,5.03-1.11,7.56-1.58,1.89-.35,3.64-1.54,4.47-3.57.39-.94.7-3.1.4-4.24-.16-.6.73-.91.45-1.21-.87-.91.09-1.69.06-2.52-.03-.91.03-1.78.37-2.72.38-1.06.18-2.38.07-3.57-.17-1.74.53-3.34.66-5.04.07-.92-.31-1.42-1.03-1.6-.77-.18-1.18.39-1.7.6-.51.2-.98.32-1.5.44-.66.16-.87-.9-1.46-.46-.36.27-.42.74-.97,1.04-1.38.74-3.01,1.15-4.02,2.48-.23.3-.59.17-.84.29-1.03.47-2.24.45-2.86,1.86-.49,1.11-2.07,1.09-3.18,1.44-.96.3-1.67-.57-2.35-1.21-.8-.75-1.26-1.72-1.84-2.61-.62-.93-1.01-2.05-1.75-2.86-1.41-1.56-1.99-3.5-2.87-5.32-.37-.76-.14-1.51-.18-2.2Z"/><path class="cls-1" d="M50.24,130.58c-11.32-10.38-9.69-12.2-8.5-14.12.47-.75,1.44-1.14,2.17-1.68,1.83-1.34,2.86-3.31,4.33-4.93,1.01-3.1,3.47-5.4,4.63-8.42.69-1.82,1.37-3.65,1.58-5.58.09-.81.49-1.42.81-2.08.2-.41.62-.73,1.14-.25.15.14.4.25.61.25,2.48,0,3.9,1.55,4.99,3.48.31.54.54,1.12,1.05,1.47.64.45.73,1.12.53,1.68-.29.81-.53,1.59-.45,2.46.01.14-.04.34-.13.42-1.12.89-1.47,2.52-2.74,3.15-.84.42-1.19,1.14-1.59,1.76-.52.79-1.15,1.45-1.74,2.16-.58.69-1.51,1.08-1.53,2.27-.02.83-1.33,1.03-1.43,2.04-.03.31-.73.72-.41.96.73.54.09,1.64.99,2.03,1.05.45,2,1.08,2.82,1.87.28.27.57.2.87.22q3.89.28,6.66-2.49c2-2.02,3.26-4.53,4.59-6.99,1.17-2.16,2.32-4.31,2.95-6.72.14-.52.14-1.06.32-1.54.32-.83.61-1.74,1.19-2.37.39-.42,1.41.22,1.9-.55.45.75,1.46.25,2.01.97.78,1.03,1.88,1.57,3.24,1.42.33-.04.63,0,.84.3.46.69,1.15,1.33,1.33,2.08.23.99.2,2.1,0,3.1-.1.48-.68,1.19-1.33,1.21-.97.03-1.43.44-1.59,1.33-.01.06-.11.12-.16.17-.71.65-1.84,1.2-2.04,1.98-.3,1.17-1.19,1.65-1.85,2.36-2.85,3.03-5.67,6.07-7.47,9.89-.1.2-.35.33-.5.52-.45.6-.32,1.26.35,1.56.81.37,1.69.6,2.44,1.06.4.24.57.37.87-.03.52-.67,1.08-.68,1.82-.25.76.44,1.66.64,2.44,1.06,1.23.65,2.27,1.49,2.78,2.88.43,1.18,1.72,2.01,1.43,3.49.67.8.43,1.77.49,2.68.04.6-.13,1.17.33,1.8.38.51.37,1.49,0,2.02-.38.54-.37,1.04-.33,1.55.11,1.4-.4,2.48-1.26,3.59-.54.7-.78,1.44-1.86,1.32-1.1-.13-2.08-.31-2.68-1.41-.43-.79-.97-1.53-1.49-2.27-.93-1.3-1.49-1.44-2.94-.78-.61.28-1.38.42-1.78.88-.87,1.01-2.27.83-3.19,1.65-1.68-.32-2.84.91-4.19,1.5-1.46.64-2.82,1.42-4.47,1.39-.16,0-.35-.04-.46.03-.68.43-.73,1.42-1.67,1.69-.78.22-1.54.55-1.49,1.74.03.67-1.04,1.18-1.63.79-1.06-.7-1.87-.57-2.65.33-2.05.24-3.69,1.54-5.61,2.12-.43.13-1.24.15-1.36-.07-.65-1.15-1.54-1.55-2.81-1.37-.21.03-.22-.35-.33-.52-.84-1.29-.74-2.88-1.4-4.23-.54-1.12-.49-2.39-.54-3.63-.04-1.17.57-1.93,1.47-2.09.75-.14,1.35-.6,2.19-.61,2.57-.05,4.79-1.17,6.73-2.85,1.89-1.63,3.45-3.56,4.38-5.88.45-1.12,1.52-1.67,1.97-2.79.44-1.09.85-1.99.73-2.52-.29-1.31-1.38-1.47-2.37-1.77-2.1-.65-4.15-.15-6.11.52-.99.34-2.06.26-3.02.86-.47.29-1.26.05-1.93-.44-1.67-1.23-1.78-2.86,9.06,3.15,12.24,8.08,13.75,7.19,15.4,6.96.63-.09.76-.92,1.52-.99,1.2-.11,2.14-.99,3.25-1.4.25-.09.43-.17.42-.45-.03-.7-.01-1.39.48-1.96-.62-.55-.26-1.48-.83-2.06-.25-.25-.28-.67-.49-1-.46-.75-.78-1.6-1.07-2.43-.48-1.4-.76-1.57-2.03-.89-1.79.95-3.1,2.53-4.7,3.73-.31,1.68-1.81,2.59-2.55,3.99-.38.72-.86,1.4-1.17,2.16-.58,1.42.02,2.24,1.56,2.27.24,0,.48,0-9.79-7.93Z"/><path class="cls-1" d="M105.47,72.71c.89-5.34.33-10.74.45-16.12.01-.46.23-.7.47-1.02.11-.15-.59-.2-.27-.67.59-.85.51-1.96.16-2.7-.35-.72-.12-1.41-.38-2.01-.28-.66.76-1.11.09-1.82-.38-.41.2-1.2-.35-1.77-.37-.38.55-.63.3-1.16-.54-1.13,1.3-2.29,0-3.44v-3.6c0-1.28-.02-2.56,0-3.84,0-.43-.1-.75-.43-1.03-.75-.63-.56-1.17-.12-2.01.58-1.11,1.01-2.41.19-3.72-.18-.29-.24-.82-.1-1.13.36-.82.1-1.42-.28-2.16-.53-1.01-.15-2.17-.22-3.27-.04-.56.56-.72.82-1.1.26-.39.68-.51,1.04-.36,1.37.58,3.11.7,3.84,2.19.27.56.44.65.94.69.75.06,1.49-.18,2.25.4,1.01.78,1.52,1.91,1.6,2.94.11,1.32.8,2.53.59,3.88-.03.22.46.6.39.73-1.08,1.91.17,4.07-.66,5.98-.24.55.7,1.07-.18,1.73-.62.47.52,1.18.43,1.9-.13,1.02.71.78,1.11.66.92-.27,1.78-.73,2.67-1.1,1.56-.64,2.8-1.78,4.14-2.75.81-.58,1.42-1.39,2.55-1.42,1.42-.04,2.7.5,3.84,1.17,1.23.72,2.29,1.69,3.65,2.23.9.36,1.1,1.45,1.65,2.17.39.51.32,1.64.04,2.31-.38.92-1.37,1.58-2.34,1.69-1.39.15-2.66.58-3.81,1.27-.82.49-1.64.07-2.48.42-1.64.67-3.39,1.08-5.08,1.65-1.11.37-2.28.71-3.43.99-1.85.46-2.31,1.81-2.47,3.32-.09.8-1,1.65-.04,2.48-1.18,1.31.12,2.61.08,3.93-.07,2.19-.84,4.3-.59,6.53.13,1.16.32,2.17.87,3.26.57,1.14.95,1.44,1.97.72,1.59.36,3.04-.8,4.6-.46.94.2,1.54-.83,2.45-.51,1.3-1.06,2.95-1.02,4.44-1.47,1.13-.34,2.21-.87,3.25-1.43.95-.51,1.93-.46,2.93-.46.23,0,.45,0,.64.2,1.39,1.45,3.38,1.96,4.94,3.15.77.59,1.05,1.09.85,1.98-.32,1.44-1.94,2.83-3.47,2.83-2.25-.01-4.39.41-6.6.86-2.37.49-4.76,1.44-7.26,1.06-.65-.1-.96.41-1.48.52-1.97.44-3.96.86-5.88,1.46-.89.28-1.82.94-1.7,2.06.09.79-.39,1.31-.55,1.96-.36,1.46-1.93,2.07-3.09,1.22-.57-.42-1.02-1.02-1.54-1.51-.63-.59-.72-1.55-1.24-2.1-.45-.48-1.33-.46-1.96-1.04-1.6-1.47-2.72-3.04-2.23-5.37Z"/><path class="cls-1" d="M76.13,158.14c-.72,3.67-.48,7.39-.47,11.09,0,1.94-.14,3.88.42,5.82.24.84.38,1.95-.14,2.78-.54.86-.13,1.7-.28,2.53-.16.89.36,1.91-.49,2.68v8.89c.81,1.04.65,2.32.42,3.39-.48,2.26-.39,4.51-.42,6.78,0,.16.06.35,0,.48-1.09,2.11-2.07,4.3-3.36,6.29-.98,1.51-2.34,1.59-3.82.83-.32-.17-.4-.29-.53-.6-.8-1.93-1.99-3.66-3.02-5.46-1.11-1.95-1.32-3.86-1.33-5.96,0-.82.44-1.46.62-2.17.3-1.15.83-2.29.8-3.47-.02-.71.4-1.14.56-1.72.18-.66-.65-.9-.5-1.49.21-.87.3-1.8.66-2.61.56-1.25.42-2.39-.19-3.51-.42-.78-.9-1.52.1-2.21.67-.47.47-1.2.36-1.76-.47-2.45-.37-2.42-.03-4.9.16-1.18.5-2.52-.28-3.69-.29-.44-.23-.98-.1-1.37.19-.57.48-1.07.46-1.74-.05-2.56.21-5.15-.1-7.67-.2-1.63-1-3.29-1.91-4.69-.63-.98-.41-1.71.11-2.25.75-.77,1.72-1.51,2.73-1.81.79-.23,1.79-.31,2.72.29.82.52,1.78.81,2.47,1.57.73.8,1.8,1.15,2.7,1.62,1.62.85,2.04,1.97,1.85,3.58-.02.16,0,.32,0,.48Z"/><path class="cls-1" d="M132.37,154.06c.5.52-.88.78-.17,1.36.45.36.24.99.44,1.49.44,1.14.47,2.49-.02,3.65-.31.72-.38,1.46-.2,2.05.84,2.8.41,5.64.38,8.45-.02,1.74.76,3.33.58,5.08-.09.85-.35,1.63-.49,2.44-.16.93.22,2.02-.11,2.84-.3.75-.52,1.55-.82,2.3-.33.81-.54,1.69-.91,2.5-.33.74-.84,1.43-1.04,2.2-.21.79-.94,1.13-1.23,1.9-.32.87-1.57.69-2.39,1.04-.49.21-1.12-.47-1.82-1.24-.88-.96-1.51-1.94-1.33-3.3.02-.16.06-.42-.01-.46-.93-.59-.78-1.59-1.07-2.45-.26-.75-.63-1.49-.92-2.26-.29-.77-1.08-1.42-2-1.84-.83-.38-1.4-1.13-1.32-2.27.11-1.56.23-1.9,1.81-1.97.92-.04,1.65-.16,2.28-.93.65-.79,1.05-1.58,1.28-2.61.78-3.52.4-7.07.4-10.6,0-2.71-1.02-5.14-2.79-7.23-.81-.95-.72-1.74.08-2.64.82-.92,2.07-.81,3.03-1.43.38-.25,1.39-.67,1.62-.5,1.06.82,2.28.14,3.37.6.78.33,1.53.85,2.04,1.34.6.58,1.54,1.33,1.33,2.49Z"/><path class="cls-1" d="M45.84,168.84c-.18.95.14,2.07-.39,3.26-.35.79-.4,2.03.2,2.96.3.47.19.92.18,1.36-.03,1.05,0,1.98.2,2.41.88,1.82,1.14,1.82,3.27,1.14.91-.29,1.83-.67,2.61-1.21.45-.31.84-.37,1.3-.35,1.13.03,1.77,1.09,1,1.88-.95.98-.78,2.42-1.79,3.39-.85.81-1.63,1.96-1.96,2.99-.37,1.14-1.67,1.91-1.28,3.34.3,1.11-.44,2.37.4,3.44,0,2.25.45,4.5-.35,6.74-.32.88-.69,1.65-1.6,1.73-1.16.11-2.32.2-3.27-.96-1.37-1.66-2.14-3.76-3.89-5.15-.54-.43-.95-1.19-.88-2.01.06-.71-.21-1.32-.45-1.98-.37-.99-.76-2.05-.5-3.15.27-1.14-.39-2.12-.6-3.14-.17-.82-.46-1.65-.34-2.46.17-1.14-.54-2.07-.56-3.17-.02-1.05.54-2.23-.42-3.17.15-1.5-.63-3.2.95-4.4.78-2.21,2.31-4,3.36-6.06.5-.98,1.69-1.01,2.32-1.8.09-.12.49-.09.69,0,.63.26.92,1.03,1.7,1.15.1.02.09.87.1,1.34.02.56,0,1.12,0,1.87Z"/></svg>