<?xml version="1.0" encoding="UTF-8"?><svg id="_图层_1" xmlns="http://www.w3.org/2000/svg" viewBox="0 0 365.77 153.25"><defs><style>.cls-1{fill:#000;stroke-width:0px;}</style></defs><path class="cls-1" d="M116.35,126.36v4.57c-1.14,1.11-2.32,2.27-3.5,3.42-.2-.2-.44-.44-.91-.91-.42.77-.86,1.56-1.15,2.08-2.68-1.14-4.63-1.97-6.98-2.2-.5-1.11-1.07-2.35-1.71-3.76h-3.06c-1.73-2.68-5.18-3.46-7.01-6.17-1.88.74-3-1.39-4.78-.91-1.28-1.42-2.59-2.88-3.59-3.99h-5.67c-2.41,4.52-2.63,9.42-2.35,14.38-1.73.84-3.3,2.09-5.71,1.33-1.97-4.18-2.97-8.99-4.34-13.69-1.07-3.67-1.26-7.38-.79-11.02.26-1.98.58-3.82.58-5.88,0-3.34-1.7-6.67-.61-9.84.77-2.24.87-4.37.85-6.59-.01-1.39.54-2.97-.93-4.04.3-.34.6-.67.86-.96-.49-.54-.94-1.02-1.36-1.48-3.72,5.55-6.23,11.72-9.4,17.53-.75,1.38-1.32,2.43-2.78,2.48-1.44,5.94-5.21,9.8-10.31,13.75-.63,1.2-.92,3.69-3.72,4.43-1.18.31-1.32,1.73-1.18,2.94-4.33,2.74-8.77,5.32-12.56,8.55-.74.15-1.11-.16-1.62-.75-.98.71-2.38.65-3.22,1.75-1.84-1.89-4.1-.74-6.13-.93-1.96-.18-3.94-.04-5.76-.04-1-.68.09-2.36-1.63-2.25.77-1.52,2.11-2.02,3.24-2.3,4.56-1.14,7.64-4.7,11.54-6.9,1.51-.85,2.91-2.57,4.21-4.03,1.31-1.47,3.46-2.04,4.43-3.56,1.06-1.66,2.33-3.03,3.62-4.44,1.21-1.33,3.29-1.74,3.84-3.79.19-.7,1.07-.54,1.66-.7.81-1.69,1.39-3.46,2.79-4.84,1.26-1.25,2.95-2.21,3.52-3.99.56-1.76,1.84-2.88,3.02-4.14,1.34-1.43,3.39-2.7,3.79-4.36.5-2.08,2.99-1.39,3.35-3.57.24-1.48.82-3.89,3.41-3.93,1.73-3.66,3.42-7.35,6.4-10.47-.51-1.82.94-4.08-1.01-5.89-.25-.23-.22-1.07,0-1.44,1.8-3.05.56-6.36,1-9.4-1.68-2.03-4.21-2.26-6.03-3.6-.38.21-.64.39-.92.5-1.35.55-2.45-1.09-3.83-.45-1.28.59-2.56.99-4.05,1.09-1.72.11-2.81-1.84-4.59-1.05-.81-.84-1.61-1.67-2-2.08-2.17-3.43,2.3-4.71,1.55-7.51,1.63-1.61,3.28-3.24,4.92-4.86-.48-3.16,3.68-4.5,2.84-7.97,1.12-.85,2.3-1.74,2.95-2.23.57-4.85,3.04-8.2,4.05-12.4-1.34-1.47-1-3.51-.7-5.69,1.98.04,3.19,1.32,4.6,1.97.12,1.04.21,1.82.3,2.59.31.13.6.38.87.34,3-.35,3.53,2.35,3.82,3.98.41,2.3.89,4.32,2.6,5.91,1.05.97.31,2.18.56,3.23-3.74,3.74-7.46,7.46-10.87,10.87-.24,1.73-.05,2.81,1.06,3.5.25.47.48.46.72,0,1.08-2.09,3.74-1.37,5.26-3.06,1.16-1.29,3.55-1.02,5.29-1.33,1.57-.28,2.98-1.03,4.48-1.39,1.53-.37,3.01-.9,4.6-.8,2.91.18,5.53-1.46,8.55-1.11,1.92.22,3.72.52,5.46,1.29q1.27,3.07,1.2,6.47c-.54.2-1.14.36-1.69.63-.27.13-.44.47-.64.7-.42-.39-.78-.72-1.13-1.03-.35.03-.85-.07-.97.1-1.43,1.99-3.73,2.48-5.79,2.79-3.43.52-6.55,1.82-9.66,3.13-1.91.8-4.44-.31-5.32,1.84-1.57.31-1.83-1.56-3.21-.79-.16.46-.36,1.04-.62,1.79h-4.69c.74,1.43,1.32,2.57,2.02,3.95,1.96.21,4.14-.06,5.76,1.44,1.45,1.35,2.86,2.73,4.35,4.15-1.57,4.65-1.02,9.47-2.4,13.98,1.45.49,2.54.8,3.24,2.03-.28,2.03.62,4.38-1.02,6.36.32,2.05,3.27,1.79,3.45,3.95.78-.12,1.63.34,2.34-.29-.12-.82-1.45-1.35-.33-2.71,1.69.59,3.51,1.22,5.34,1.86.92.45,1.16-.82,2.15-.84.68-.12.96.61,1.49,1.02.29,0,.77.14.92-.02,1.33-1.42,2.95-1.34,4.38-.51.8.46,1.7.82,2.24.48,1.98-1.28,3.67-1.14,5.73-.04,1.03.55,2.6.07,3.92.1,1.63.04,3.74-.47,4.77.35,1.5,1.2,3.16,0,4.58,1.17,1.11.93,2.75,1.42,4.1,2.01,1.89.83,3.97,2.02,6.13,1.44,2.23,2.12,3.98,4.54,7.07,5.06.7,1.57,1.98,3.13,1.33,4.88-.8,2.15-1.05,4.74-3.54,5.84-3.19,1.36-6.55,1.28-10.05,1.02-1.88-2.85-4.92-4.34-7.9-5.82-1.54-.77-2.98-1.59-4.43-2.54-2.78-1.81-5.84-3.21-8.94-2.48-2-1.03-3.65-1.88-5.76-2.97-4.79.53-9.61-1.49-14.68-2.7-.54,1.35-2.36.17-3.51,1.39,1.45,1.46,1.33,3.41,1.17,5.3-.31,3.67.92,7.45-.93,11.04-.74,1.43,1.39,2.39,1.03,4.06-.3,1.4-.53,3.34.19,4.31,1.28,1.72.21,3.52.93,5.12,1.88,1.45,3.15-.93,4.94-.78,1.84.16,3.52-1.24,5.55-.96,1.79.25,3.64.15,5.46.02,1.74-.13,3.42,2.53,5.17.1,1.44,1.58,3.34.7,5.19.97,1.51,2.75,4.63,3.61,7.17,5.09,1.93,1.12,3.09,2.51,4.1,4.74ZM65.72,76.63c-.43-2.02.3-3.83,1.09-5.8h-1.8c-.6,1.92-2.18,3.58-.98,5.8h1.69Z"/><path class="cls-1" d="M5.04,82.53c-.13-.81.16-1.37-.72-1.87H.44c-.71-.9-.32-1.73-.39-2.57,2.48-1.34,3.97,1.08,5.98,1.61,1.38-.97,3.37-1.05,4.17-3.02,3.25.15,6.25-.25,9.19-1.81,2.69-1.42,5.87-1.44,8.48-1.14,1.61-.79,2.82-1.5,4.11-1.95.73-.26,1.98.23,2.37-.19,2.36-2.54,6.26-2.17,8.53-4.56,1.4-1.47,2.84-1.28,4.45-1.18.8.65.16,1.56.48,2.26-2.21,2.72-5.66,3.85-7.51,6.67h-2.11c-.81,1.75-1.42,3.5-2.8,4.89-1.27,1.26-3.9,1.16-3.65,3.94h-4.33c-.76.76-1.34,1.34-1.93,1.93-1.82.42-3.65.21-5.56.94-2.29.87-4.75-1.1-7.18-1.44-2.84-.39-4.87-2.77-7.7-2.51Z"/><path class="cls-1" d="M88.82,44.9c2.61-.2,4.7,1.79,6.74,1.01,4.43,2.04,8.57,3.94,7.76,9.55-3.88,1.76-7.61,3.49-11.58,4.78-1.85.6-3.5.28-5.23.52-2.5.35-5.2-.85-7.47,1.27.31-.87-.48,0-.38-.65.02-.12.08-.26.16-.35,3.16-3.17,6.32-6.33,9.54-9.55.55-2.12-.39-4.47.45-6.59Z"/><path class="cls-1" d="M56.51,145.01c-.72.72-1.42,1.42-2.22,2.22h-6.27c-.42-.59-1.09-1.52-1.76-2.45-1-1-.23-2.03.31-3.08-.6-.6-1.18-1.18-1.68-1.68,1.01-3.01,2.05-5.95,1.88-9.35,3.1-.81,2.18-4.72,4.64-6.29,1.61.29,2.26,1.73,3.05,2.44,1.11,6.08,2.96,11.79,2.05,18.2Z"/><path class="cls-1" d="M327.41,66.49c.56.35,1.09.76,1.68.5,1.72-.75,3.52-.34,5.28-.43.66-.03,1.34.1,1.73-.61.32.26.49.4.73.6,1.39-.67,2.84-.71,4.22.18.27.17.49.31.8.28,1.95-.19,3.61.79,5.34,1.4,1.38.49,2.78.95,4.12,1.61,1.32.65,2.56,1.28,3.58,2.33.32.33.64.65,1,1,.15-.12.3-.25.52-.42,1.22,1.71,3.26,2.5,4.5,4.38,1.15,1.74,1.78,3.71,2.98,5.5v1.77c1.46.72.57,2.64,1.8,3.55v6.41c-.54.5-.95,1.17-1.22,1.91.3.64.65,1.35,1.29,1.8-.77,1.97-1.46,3.85-1.43,5.21-1.12,3.74-2.1,6.89-4.98,8.74v1.05c-1.31,1.32-2.63,2.63-3.82,4.05-.79.59-2,.7-2.24,2.01-1.84.86-2.75,2.92-4.63,3.66-.61.24-.9.8-1.42.97-1.19.39-1.81,1.57-3.09,1.92-1.05.29-1.86,1.34-2.89,1.79-1.23.53-2.39,1.19-3.58,1.8-1.41.72-2.83,1.28-4.45,1.4-.63.05-1.37.53-1.86.92-1.02.82-2.1.94-3.01.85-1,.52-1.75.9-2.71,1.4-.82.27-1.97-.48-3.03.39-.31.25-1-.37-1.66,0-.47.26-1.33-.18-1.76.1-.64.42-1.26.3-1.89.43-.56.11-.77-.38-1.2-.49-.6.02-.76.65-1.36,1.01-2.1-.77-4.41-.53-6.71-.54-.34,0-.53-.27-.77-.34-.62-.17-1.31-.38-1.88.3-1.14-1.17-2.6-1.4-4.14-1.35-.43-.28-.67-.71-1.21-.94-1.95-.81-3.8-1.85-6-2.31-.72.72-1.36,1.64-2.23,2.16-.85.51-1.55,1.01-1.87,1.98h-1.3c-.16.12-.28.19-.39.29-.79.77-1.49,1.67-2.56,2.08-.93.35-1.46,1.49-2.65,1.3-.93.93-2.15,1.48-3.12,2.32-1.06.92-2.41,1.49-3.25,2.75h-1.53c-.05.44-.09.8-.13,1.14-.34.33-.74.09-1.12.18-.89.89-1.79,1.81-2.7,2.72h-2.28c-1.07,2.37-3.36,3.3-5.35,4.64-.56-.54-.25-1.16-.33-1.78,1.25-.5,1.7-1.86,2.73-2.63,1.09-.82,1.58-2.12,2.55-3.06.92-.89,1.33-2.28,2.67-2.74,1.28-3.25,3.88-5.56,6.06-8.36.08-.36.8-2.1,1.27-2.46,1.04-.8,1.52-1.98,1.95-3.08.31-.8.85-.9,1.41-1.23v-1.43c.31-.24.67-.52,1.13-.88-.47-.37-.82-.64-1.11-.87,0-.43,0-.74.44-.73.92-.06.05,1.36.9,1.14.56-.56,1.1-1.1,1.83-1.83,0,.08,0-.22,0-.46-.18-.31-.43-.2-.63-.22-.34.16-.19.53-.4.87-.51-.29-1.01-.65-1.56-.84-.53-.18-1.22.24-1.65-.42-.35.03-.46.65-.78.43-.6-.17-.24-.76-.7-.94h-.38c-.33.16-.17.53-.41.89-.91-.17-1.85.53-2.87.09-.92.83-2.04.13-3.02.43-.37-.48-.45-1.12-1-1.41-.33.16-.16.53-.39.86-.21-.36-.42-.71-.48-.83h-2.63c-.74-.68-1.7-1.07-2.13-2.02-.06-.12-.21-.29-.33-.29-1.9,0-2.76-1.54-3.92-2.63-.59-.55-1.32-.95-1.87-1.48-.53-.51-.69-1.42-1.63-1.54-.61-1.45-2.08-2.25-3.04-3.78,2.23-.21,4.17-.99,6.23-.5,1.4-1.39,3.98-.86,4.63-3.21.61.06.92-.65,1.6-.57,1.03.12,1.79-.5,2.45-1.2.91-.96,2.06-1.57,3.16-2.27.38-.24.73-.06,1.39-.25.25-.29.68-.81.86-1.03,2.7-.93,5.05-1.72,6.99-3.37.28-.24.47-.53.93-.53.75,0,1.42-.34,1.87-.93.31-.4.85-.29,1.11-.64.38-.51,1.02.02,1.42-.46.43-.53.95-.98,1.48-1.5,1.29-.22,2.57-.43,3.73-1.36.91-.73,2.13-1.04,3.13-1.77.88-.64,2.18-.48,3.22-.98.43-.21,1.12-.24,1.54-.05,1.73.8,3.54.22,5.4.49.55-1.86-.71-3.12-1.42-4.64-1.43.38-2.44-.94-3.81-1.06-.2-.02-.54-.46-.51-.65.17-1.13-.7-1.32-1.4-1.67v-3.2c-.43-.43-.86-.85-1.33-1.32v-2.35c-.31-.22-.68-.48-.95-.67,0-1.25.22-2.37-.06-3.35-.27-.94-.13-2.01-.83-2.85-.14-.17-.13-.69.03-.86.85-.94.59-2.17.31-3-.38-1.12-.31-2.18-.35-3.26-.05-1.59.02-3.19-.03-4.78-.02-.56.22-.97.53-1.51-.54-.52-.53-1.24-.53-1.99.02-4.4.01-8.81.01-13.21,0-.52.12-1.07-.4-1.37.68-1.27,1.39-2.51,1.31-4.1-.53-.65-1.59-1.27-.45-2.32-.53-.35-.57-.88-.42-1.39,1.1-3.76,1.1-3.87.43-7.42-.08-.42,0-.89.11-1.32.23-.95.24-1.17-.12-1.95.07-.5.55-.68.84-1.07-.3-.58-.6-1.18-.91-1.78-.23-.65.76-.85.53-1.44-.15-.16-.3-.33-.45-.49.11-.11.3-.21.31-.32.15-2.34.23-4.69.73-6.78-1.1-1.41-2.89-.81-3.84-2.11.47-.99.83-2.09,2.2-2.49.23-.5.49-1.08.75-1.66,1.94-.34,3.71.17,5.39,1.12.76.42,1.54.75,2.47.64.83-.09,1.67.02,2.5-.03,1.04-.05,2.03.1,3,.45.67.24,1.35.41,2.08.52,1.8.28,2.47,1.37,2.66,3.27.1,1.02-.22,1.95-.55,2.75-.85,2.04-1.42,4.06-1.34,6.29.03.88-.38,1.79-.9,2.63.41.67.68,1.39.36,2.22-.51,1.36-.87,2.74-.81,4.23.07,1.59,0,3.19.02,4.78.01,2.12-.65,4.15-.97,6.22-.12.77-.83,1.47-.94,2.48.99.32,1.96.07,2.86.18,1.38-.83,2.89-1.21,4.3-1.84,2.31-1.03,4.86-1.41,7.09-2.7,1.03-.59,2.1-1.33,3.2-1.58,1.96-.45,3.58-1.69,5.52-2.09,1.08-.22,1.91-.9,3.1-1.37.72.08,1.62-.1,2.53-.44,1.31-.5,1.44-.93.46-2.27h-2.2c-1.76-1.59-4.08-2.04-6-3.22-1.88-1.16-4-1.99-5.57-3.66h-1.32c-1.03-.97-1.89-2.06-2.99-2.98,1.28.16,2.44.37,3.5,1.15h2.25c.19.27.41.57.45.62.77.46,1.3.24,1.81.32.67.68,1.42,1.1,2.37,1.43,1.59.55,3.3.72,4.81,1.58.64.37,1.6.17,2.46.24.44.26.59.8.86,1.54.4-1.2-.18-2.28.73-2.9-.31-.63-.61-1.02-1.23-.99.06-.63-.75-.9-.65-1.72,1.33-.03,2.69-.44,4.03.35.97-.43,1.88-.76,3.03-.05.93.57,2.13.75,3.23.94.53.1,1.05.5,1.02.71-.11.93.75,1.27.98,1.9.6,1.65,2.17,3.1,1.75,4.93-.47,2.03-.37,4.36-2.19,5.91-.04.82-.72,1.36-.94,2.12-.37,1.28-1.54,2.06-2.15,3.21-.38.72-1.39.49-2.07,1.07-1.26,1.08-2.81,1.93-4.71,2.09-.79,1.16-2.21,1.76-3.26,2.8-.29.29-.71.59-1.09.63-1.54.14-2.48,1.35-4.02,1.98h-1.63c-.2.26-.44.55-.6.76-.77.39-1.67-.15-2.17.63-.99-.38-1.89.91-2.71.34-.78-.54-1.79,0-2.44-.78-.09-.11-.44-.02-.86-.02-.34-.42-.76-.95-1.09-1.36-2.13-.09-3.73-1.08-5.28-2.03-.82-.5-1.81-.46-2.52-1.09-.71-.63-1.29-1.41-2.23-1.78-.22-.09-.41-.1-.73-.11v2.17c.21.05.42.1.74.17-.29.61-.7,1.18-.82,1.8-.14.73-.06,1.51-.03,2.27.07,1.77-.29,3.43-.78,5.14-.36,1.26-.15,2.69-.13,4.05.02,1.06-.07,2.05-.88,2.8.55,1.07,1.14,1.9.52,3.37-.59,1.4-.98,3.12-.43,4.76-1.15,1.08-2.24,2.11-1.92,3.8.31.19.42.65.86.65.51-.07.69-.55,1.05-.81.56.12,1.01.59,1.73.14,1.29-.79,2.71-1.33,4.29-1.16.21.02.4-.02.63-.13,1.7-.83,3.62-.81,5.43-1.14,1.12-.2,2.32-.29,3.43-.57,1.08-.28,2.13-.55,3.23-.41.52.07.76-.39,1.12-.53ZM293.74,115.23h-1.98c-.98-.37-.63-1.12-.85-1.62-.41-.17-.82-.33-1.23-.5-.12.5.12.9-.13,1.16-.71.41-1.15-.09-1.66-.31-.1-.04-.27.06-.46.11v1.1c.15.33.78-.09.86.59-.3.58-.65,1.27-.97,1.91q.81,1.29,1.11,1.29c.45-.32.33-1.1.93-1.31h1.5c.4.57-.13,1.25.41,1.81,1.41-.26,1.25-2.12,2.48-2.45v-1.68c.28-.07.6.13.91-.25-.4-.96-.45-2.14-1.49-2.85-.12-.08-.21-.06-.32.11-.14.75.62.92.9,1.41v1.49ZM350.01,94.8c.3-.6.61-1.22.91-1.8.4-.1.81.16,1.2-.31-.65-1.17-.3-2.47-.31-3.85-.25.35-.51.71-.62.86h-2.32v-2.01c-.59-.44-1.27.07-1.77-.37.1-.56-.35-.78-.76-1.23-1.68.44-3.29-.82-4.98-.39-.38-.39-.64-.66-.79-.81-1.11.61-2.27.2-3.39.37-.41.67-1.09,1.01-1.86,1.22-.26-.27-.53-.54-.79-.8-1.28.18-2.4-.55-3.69-.52-.99.02-1.79.66-2.77.53-1.34-.17-2.6.14-3.81.7-.76.36-1.47.27-2.01-.04-2.83.76-5.49,1.59-8.32,1.68.07.92-.91.78-1.26,1.27-.45-.22-.61-.85-1.37-.91-.3.61-1.27.42-1.63,1.25.14.28-.17.7.16.98.59.37.76-.4,1.2-.38,1.88.8,3.79,1.52,5.78,1.91,1.75,1.52,2.99,3.44,4.25,5.32.92,1.39.67,3.18,1.25,4.71.3.8.06,1.63.15,2.4-.14.14-.29.23-.35.36-.5,1.08-.89,2.23-1.51,3.24-.64,1.03-1.84,1.64-2.09,3.02-.08.44-.78.76-1.34,1.03-.51.25-.7,1.34-1.17,1.45-1.08.27-1.34,1.59-2.53,1.63-1.5.05-.68,2.04-1.87,2.42-.13.04-.22.19-.2.17-.78.31-1.48-.11-2.04.37-1.88,1.86-3.85,3.6-6.01,5.06-.12.37.13.79-.23,1.05-.38.12-.79-.17-1.1.18-.73.85-1.62,1.41-2.68,1.79-1,.36-1.45,1.61-2.66,1.75-.29.03-.28.47-.06.79.79.25,1.67-.09,2.52.46.55.36,1.53-.08,2.23.41.31-.71,1.11-.11,1.59-.62.45-.48,1.07-.22,1.48.19.78-.56,1.55-1.11,2.41-1.73.02,0,.17-.02.31-.01,1.72.08,3.33-.11,4.71-1.33.16-.14.73-.56.84-.39.55.8.78-.39,1.3-.14.59.28.82-.6,1.26-.72.94-.24,1.32-1.15,2.07-1.55.57.19,1.01.72,1.98.35.22-.28.65-.8.96-1.19.7-.15,1.21.12,1.72-.26,1.83-1.38,4.23-1.93,5.64-3.88h1.01c.73-1.36,2.33-1.6,3.45-2.54,1.09-.91,2.16-1.9,3.51-2.49,1.29-.56,1.56-2.44,3.12-2.36.33-1.1,1.27-1.48,1.72-2.23.51-.85,1.78-.73,2.07-1.83.23-.89,1.18-1.16,1.8-1.57v-.95c1.22-.47,1.17-2.29,2.67-2.61,0-1.4,1.44-2.37.94-3.84.74-.06,1.11-.39,1.43-.87v-2.19c.17-.28.41-.22.66-.23ZM299.66,109.61c.22.22.43.43.65.65.35.02.72.14,1.12-.1v-1.79c-.18-.1-.55-.3-.53-.29-.2-1.06.61-1.37.61-2.01-.13-.33-.54-.41-.47-.82.42-.43.87-.89,1.29-1.31.54-.16.75,1.01,1.43.21-.05-.64.15-1.36-.05-1.86-1.47.15-2.45.98-3.52,1.73.04.95-.53,1.69-.9,2.49.55.26.25,1.04.9,1.3-.85.44-.39,1.19-.52,1.81ZM291.86,109.77c-.31-.91-.91-.9-1.34-.64-.49.34-.98.67-1.76,1.2.86.64.78,1.53,1.06,2.27.3-.06.44-.09.58-.11.39-.51-.1-1.18.31-1.68.48-.37.68.38,1.15.26v-1.3ZM288.23,110.08c-.85-.54-1.67-1.05-2.49-1.57-.19.47-.77.31-1.03.56,0,.89,1.22.45,1.34,1.43.08.64.99.85,1.63,1.06.46-.34.7-.75.55-1.48ZM294.74,106.96c.57.62,1.27.88,2.09,1.12.33-1.33-.36-1.92-1.29-2.32-.22-.09-.6-.15-.84.16-.04.35-.14.72.04,1.04ZM295.56,110.05c.06-.59-.35-.81-.74-1.11-.23.49-.27.9,0,1.29.29.12.55.1.75-.18Z"/><path class="cls-1" d="M260.86,153.25c.35-.69.56-1.09.77-1.5.2.05.46-.12.68.41.06.59-.46.85-1.45,1.09Z"/><path class="cls-1" d="M288.72,115.5c.95-.08,1.92-.62,2.78.57-.26.17-.54.36-.95.63-.68-.09-.91-1.2-1.83-1.2Z"/></svg>