<?xml version="1.0" encoding="UTF-8"?><svg id="_图层_1" xmlns="http://www.w3.org/2000/svg" viewBox="0 0 540.74 215.76"><defs><style>.cls-1{fill:#000;stroke-width:0px;}</style></defs><path class="cls-1" d="M114.47,91.39c5.6,3.41,10.41,7.05,14.89,10.83-.23,1.49-1.24,1.83-1.54,2.27-1.11,2.03,1.03,3.18.52,5.47-.34.99-2.01,1.7-2.84,3.08,1.35,3.41.85,5.64-1.99,8.81,0,1,0,1.99,0,2.9-1.99,2.33-2.82,5.25-4.4,7.76-1.47,2.33-2.59,4.93-4.48,7.43v3.86c-1.07.82-2.24,1.72-3.06,2.35v6.58c1.06,1.06,2.12,2.12,3.18,3.18,3.25.5,5.91,2.62,9.09,3.29,3.26,3.34,7.81,4.39,11.73,6.55,4.86,2.67,9.6,5.51,15.25,6.54,2.12.39,3.95,2.41,6.17,3.85,2.49-.24,5.13.07,7.06,2.1,1.65-.65,2.86-2.02,4.55-.42,1.62,1.54,3.82,1.43,5.92,1.29,2.31-.16,4.46.19,6.3,2,2.1,0,4.39-.27,6.27,1.32.36.31.6.77,1.22.68,3.76-.57,7.25,1.85,11.03.88,2.04,1.55,4.73,1.95,6.32,4.08h5.53c5.42,2.95,11.44,3.05,16.86,6.6,1.28,1.75,1.37,4.38.86,7.09-3.81.71-7.53,1.8-11.02,1.26-1.15.52-.26,1.55-1.44,1.91-4.04.38-8.37.13-12.45-1.14-.93.88-1.64,1.56-2.32,2.21-7.12.12-14.28-.62-21.48,1.88-2.32-1.7-5.34-.57-7.96-.9-4.55-3.34-10.78-3.66-13.98-8.84h-4.27c-1.12-1.31-2.56-1.56-3.84-2.09-3.22-1.33-5.6-4.03-8.72-5.41-3.2-1.42-5.61-3.63-7.94-6.06-1.76-1.84-3.87-2.76-6.41-2.49-.76-.35-.3-1.44-.76-1.63-2.42-.95-4.15-3.17-6.28-4.08-3.82-1.63-6.04-4.76-8.97-7.21-2.19,2.83-4.4-1.29-6.62.12-.22-.27-.45-.55-.67-.82-.28.61-.5,1.26-.85,1.83-.93,1.52-3.05.37-4.2,2.05-.88,1.29-1.24,2.94-2.69,3.92-1.61,1.08-2.49,3.04-4.39,3.84-1.71.72-1.33,3.3-3.31,3.99h-4.22c-2.15,2.39-3.5,5.02-4.24,7.92h-4.4c-1.59,1.2-3.37,1.46-4.11,3.01h-5.15c-2.72,3.46-6.57,4.65-11.37,5.19-.58.72-1.51,1.88-2.27,2.83-3.31-.27-5.96,1.79-9.02.81-1.91,2.31-5.54,1.46-7.23,4.22-2.95-.54-5.75.22-8.33,1.44-1.61.76-3.21.09-4.65.56-.66.66-1.25,1.25-1.84,1.83-5.42.35-10.87-.36-16.28.38-.26.04-.47.44-.71.69-1.31-1.86-2.92-.7-4.47-.16v-1.3c1.52-.67,2.89-1.93,4.79-1.52,1.57.34,2.7-.78,3.92-1.34,2.94-1.35,5.67-3.13,8.62-4.45,1.22-.55,2.35-1.4,4-1.27,2.04.15,3.71-1.45,5.42-2.4,1.61-.9,2.55-2.99,4.86-2.73,2.03-2.98,5.6-2.59,8.46-3.59,1.36-.48,2.71-1.08,3.05-2.08.99-2.92,3.64-3.96,5.75-5.42,1.6-1.11,3.02-2.34,4.44-3.61,1.9.66,3.17-1.61,5-1.08,2.75-2.41,4.75-5.89,9.01-5.98,2.25-2.88,6.54-3.7,7.44-7.71,1.02-.11,1.81-.2,2.49-.27,1.9-4.66,6.81-5.37,10.25-8.1v-4.38c-1.9-2.9-3.94-5.71-7.25-7.37-.98-.49-1.85-1.45-2.47-2.39-1.4-2.1-2.74-4.1-5.52-4.6-.6-.11-1.35-1.08-1.48-1.76-.18-.96-.76-1.63-1.38-1.89-3.31-1.41-4.62-4.72-6.94-7.08-1.57-.51-3.77.64-4.59-1.76.42-.42.89-.89,1.28-1.28,4.5-.82,8.42,1.67,13.2,2.05,1.68,1.64,3.54,4.02,6.81,3.83,4.33,3.94,10.36,5,14.75,8.88h5.47c-.26-2.33,2.99-2.58,2.32-4.89h2.4c2.22-4.88,4.26-9.87,6.75-14.61.92-1.75.18-3.79,1.65-5.32,1.5-1.56,1.19-3.67.96-5.53-.24-1.91,1.61-3.18,1.17-5.03,1.84-1.29,0-3.92,1.88-5.2-.43-1.98-.44-4.2-1.41-5.87-.88-1.52-.23-2.89-.65-4.34Z"/><path class="cls-1" d="M114.79,91.78c-7.96-3.31-14.1.92-20.89,2.23-.49-.74-2.04-1.06-2.7-.48-2.31,2.06-5.56-.31-7.73,1.89-.16.17-.65.07-.97.01-4.04-.65-6.85-.12-10.3,1.99-.99,0-1.99,0-2.92,0-2.23,2.26-5.79,3.1-6.4,6.45-1.74,1.15-3.52-.1-4.96.86-.54.98.14,1.51.74,2.07-2.77,2.36-4.32,3.24-6.3,3.58-1.43,1.66-1.24,4.66-4.28,5.21-.96,2.68-2.5,5.25-4.53,7.38-1.14,1.2-1.72,2.66-2.7,3.91-.97,1.25-2.38,1.71-3.57,2.3-1.48.73-.6,2.88-2.59,3.19-1.33.21-.93,2.92-2.67,2.83-1.6-.08-2.34.86-3.32,1.7-.98.84-2.23.05-3.32.5-.54-.73-1.08-1.33-1.49-2.01-2.35-3.93-2.55-4.02-.89-8.17.56-1.41.84-2.68.88-4.11.14-4.37,2.77-7.81,4.39-11.62.18-.42.65-.98,1.04-1.02,2.28-.26,2.89-2.53,4.52-3.46v-5.21c2.98-1.96,4.91-4.92,7.13-7.72,2.19-2.76,4.16-5.78,6.56-7.93.59-2.87,1.8-5.53,3.94-6.45,1.86-.8,1.85-2.33,2.14-3.23,1-3.08,2.41-5.73,4.69-8.04,2.56-2.59,3.61-6.33,6.26-8.24.57-1.79-.6-2.55-.87-3.77,1.22-1.71,2.49-3.5,3.93-5.52.37-3.7.26-7.64-1.97-11.17,2.28-2.6,3.55-2.76,6.18-.39,2.22,1.99,4.22,4.21,6.28,6.29h2.05c1.65,1.65,3.3,3.3,4.96,4.96,1.6-.69,2.55,1.16,4.41,1-.68,3.33,2.03,5.34,3.2,8.01-1.41,2.25-2.69,4.46-1.98,7.32-5.51,5.4-10.99,10.84-15.05,17.49-.22.36-.03.98-.03,1.93-.9.72-2.05,1.65-2.93,2.36v2.34c.34.15.61.33.91.39,1.86.37,3.33-.7,4.9-1.38,2.25-.97,4.21-2.66,6.9-2.82.09-.43.19-.88.29-1.4,1.26-.81,2.39-.63,3.35.6,2.27-2.78,5.89-2.58,8.83-3.87,1.35-.59,3.22.23,4.52-1.09,4.4.56,7.47-2.89,11.38-3.75,2.91-.63,5.12-2.74,8.11-3.33,2.66-.53,5.3-1.51,7.86-2.59,1.42-.6,3.22-.28,5.09-.39,2.44-1.07,4.7-3.41,8.12-2.87,1.54-2.56,4.42-3.38,7.22-5.01,1.89-.42,4.48.85,6.65-.89,1.92,1.72,4.56.08,6.43,1.03,2.22,1.13,4.41.6,6.58.96,1.06,1.06,2.11,2.11,3.2,3.2-.17.99-1.17,1.35-1.69,2.07-.09.78-.18,1.57-.29,2.54-4.65-.33-8.04,3.02-12.57,3.6-1.07-1.36-3.03-.19-4.75-.62-.78,1.64-2.55,1.91-4.12,3.07-2.46.09-5.12.05-7.85,1.76-2.04,1.27-5.09,1.93-7.78,1.14-.7.7-1.29,1.29-1.97,1.97h-4.91c-1.47,2.1-3.9,2.43-6.12,3.03-1.99.54-3.56,1.8-5.43,2.54-.93.37-1.49,1.33-.81,2.82Z"/><path class="cls-1" d="M409.25,165.87c-.5-.5-.97-.97-1.28-1.28-3.71,1.28-7.38,2.38-10.92,3.81-3.41,1.37-7.05,2.12-10.1,4.59-1.38,1.11-3.5,1.79-5.4,2.48-4.89,1.78-9.96,3.14-14.55,5.72-2.68,1.5-5.44,2.89-8.3,3.99-.62.24-1.69,2.04-2.65.2-.85,1.48-2.74.36-3.77,1.57-1.69,1.97-3.96,2.65-6.48,2.29-.92-.13-1.19.9-1.94.86-1.51-1.41-2.43-3.01-2.32-5.31-3.11-2.82-5.94-6.02-6.05-10.73,2.9-2.86,3.27-6.44,3.01-10.33,3.44-1.66,4.7-5.81,8.35-7.52.95,1.24-.93,1.8-.42,2.94.37.81.07,1.92.07,2.49,1.15,2.32,3.26,1.15,4.48,1.91,1.48.91,2.29.83,3.87.13,2.37-1.06,5.22-.99,7.65-1.97,2.46-.99,5.08-1.22,7.57-2.13,2.33-.85,5.23-.18,7.81-.18,1.24-1.3,2.67-2.32,2.9-3.93,1.73-.22,1.5.82,1.66,1.52.25.46.4.38.73.13,3.1-2.26,6.92-2.6,10.44-3.6,4.33-1.22,9.09-.67,13.17-3.08,4.71.53,8.82-3.13,13.61-1.98,1.48.36,2.14-1.36,3.79-1.17,0-6.64,0-13.23,0-19.83,0-1.91-1.54-3.52-1.01-5.57.31-1.2-.35-2.48.77-3.7,1.02-1.12-.14-2.35-.75-3.43.85-1.88,1.93-3.76.01-5.68.63-.52,1.11-1.08,1-2.05-.35-3.18.75-6.48-.96-9.57-.35-.63-.06-1.63-.05-2.46.03-1.98-.38-4.11.23-5.89.66-1.94-.92-3.44-.28-5.25.4-1.15-.29-2.5.9-3.66.5-.49.31-1.93.11-2.87-1-4.77-1.03-4.76.91-9.18-.81-.45-.9-1.27-.95-1.51-.59.58-1.44,1.43-2.28,2.27-.21-.21-.42-.42-.64-.64v2.04c-1.98,1.59-3.35,3.89-5.9,4.94-.99.41-2.09,1.44-2.42,2.42-1.17,3.55-4.5,5.06-6.66,7.63-2.08,2.48-3.88,5.21-6.4,7.27-1.73,1.42-3.95,2.35-5.16,4.28-2.94,4.69-7.88,5.46-12.38,6.86-5.45-3.32-5.24-9.16-6.96-13.81.28-1.71,1.86-1.21,2.6-2.12.83-1.02-.14-2.31.96-3.13,1.15-.87.02-2.22.42-2.84.29-1.52,1.44-.9,2.03-1.5,1.13-1.16,1.32-2.92,2.77-3.87,1.09-.71,2.28-1.16,2.87-2.69.7-1.83,2.9-2.68,4.49-3.41,2.7-1.24,3.9-3.71,5.76-5.58,1.79-1.78,3.03-4.05,5.58-5.07.85-.34,1.49-1.3,2.12-2.06,1.54-1.85,3.92-3,4.59-5.56,2.57-.44,3.17-2.83,4.54-4.49,1.54-1.87,3.83-2.88,5.67-4.46,1.05-.9,1.87-1.73,2.75-2.8,1.43-1.74,2.19-4.04,4.69-5.11,1.72-.74,3.52-2.47,3.09-4.95,1.27-.54,2.39-1.02,3.63-1.55.79-.75-.19-2.08.9-3.03.91-.8,1.77-.67,2.78-.74.69-1.65,2.11-3.02,1.65-5.09,2.59-.81,4.12-2.49,5.84-4.41v-3.89c.76-.76,1.35-1.35,2.09-2.09-.5-2.51.84-5.35-.89-7.95,2.67-2.22,5.99-1.26,9.19-1.51,1.2,1.31,2.41,2.65,3.25,3.57,5.37,1.37,7.92,5.02,10.29,9.01v3.82c.69.73,1.37,1.44,2,2.11.23,1.68-1.65,1.96-2.04,3.46,1.94,4.21,6.89,1.92,9.82,4.3.08,2.42.98,4.73,1.8,6.91-.55,2.83-1.11,5.63-1.73,8.81,4.9-1.21,8.8-3.27,12.41-5.94,1.61-.66,3.65.69,5.04-1.05,1.89,1.08,3.7,2.42,6.06,1.8,1.68,1.93,3,3.88,2.42,6.58-2.3,1.05-2.99,3.83-5.54,5.32-2.95.46-6.06,2.22-9.59,2.14-.14,0-.33.09-.41.19-2.57,3.38-6.28,2.76-9.52,2.77-1.29.77-2.37,1.4-3.81,2.26.98,3.15-1.24,6.03-.88,9.27,1.08.7,1.94.59,3.1-.13,3.01-1.85,6.24-3.22,10.79-2.06,1.37.64,2.08,2.8,3.1,4.91-.82,3.61-3.26,5.93-6.87,7.6-4.03.08-8.16,1.05-10.19,2.55.83,4.03-3.07,8.26.27,12.4,1.05-.57,1.96-1.07,2.88-1.57.27-.14.58-.38.84-.34,3.26.48,6.22-2.03,9.82-.75,1.41,1.97,2.61,4.48,2.05,7.21-.54,2.64-3.31,3.58-5.51,5.47-3.53-.7-7.16,1.07-10.96,1.17-1.43.78-1.89,2.32-1.27,3.39,1.56,2.69.69,5.14-.15,7.37.4,1.76,2.7.1,2.38,2.29,1.61-.86,3.08-1.02,4.1-2.21h4.99c.52-.55,1.07-1.12,1.64-1.72-.73-1.28-.87-2.76-2.02-3.74.62-1.31,2.06-.05,2.95-1,.96-1.03,2.7-.99,3.57-.29,1.57,1.27,3.16.46,4.71.72,3.56.59,7.15.83,10.66,1.89,1.21.37,1.64.73,2.29,1.74.45.7,1.97.85,2.63,1.86v4.98c-2.96,1.28-5.44,3.49-9.37,4.53-.78.04-1.34-1.96-3.69-1.28-.18.14-1.6.09-2.36,1.23-1.63,0-3.29.1-4.94-.02-3.41-.24-6.54.78-9.76,1.67-1.99.55-4.19.34-6.07.46-.96.85-1.82,1.6-2.53,2.22,1.54,2.72.89,6.1,3.14,8.43,3.08-1.31,6.39-1.85,9.56-2.85,2.84-.89,5.84-.86,8.67-1.89,2.76-1.01,5.57-1.96,8.61-2.13,1.11-.06,2.17-1.12,3.3-1.74.13.1.36.28.78.61.96-.28,1.92-1.39,3.06-.65q4.79-4.79,8.49-3.1c1.1-.07,1.76-1.4,3.07-1.02,1.02.29,1.75-.41,2.61-.89.99-.55,2.04.49,3.06.79,1.53.45,3.34.39,4.93.05,2.1-.44,3.66.96,5.57,1.14,1.97.18,4.43,5.26,3.61,7.63-.84,2.41-1.2,5.19-3.19,7.12q-5.83.18-9.61-1.87c-1.1.14-1.49,1.19-1.99,1.56-1-1-1.98-1.99-2.97-2.97-.83.77-1.19,1.39-1.52,1.37-4.4-.31-8.58,1.6-13.04,1.1-3.98-.45-7.9.58-11.58,2.02-1.94.76-3.83-.23-5.84.75-1.69.83-3.88,1.1-5.96,1.33-3.29.37-6.46,1.89-9.69,2.93-.09,1.53-.72,2.93.57,4.22.35.35.2,1.23.22,1.87.03.99.09,2,0,2.99-.75,7.55,1.46,14.96,1.01,22.49-.12,2.05.4,4.15-.92,6.11-.43.64-.46,2.06.73,2.3-1.4,5.21-5.34,8.59-7.8,12.44-2.1.69-3.88-.35-5.58,1.15-1.14,1.01-2.58-.7-4.14-1.23-1.95-2.56-.79-6.22-2.52-9.29-5.36-3.66-11.38-6.84-16.52-11.83-.36-.76-.08-1.9-.03-3.42,1.68.31,3.28-.57,5.07.54,1.36.85,3.05.9,4.36-.52,1.43,1.71,3.37.78,5.09.92,1.63.13,3.29.03,4.83.03l1.44-1.44c.37-.42.09-1.3.02-2.07-.56-6.55,1.71-12.95,1.02-19.5-.1-.94.4-1.98-.41-2.81q-2.21,1-3.18,4.06c-1.68-.79-3.35-1.57-4.57-2.14-1.94-.06-2.3,1.33-3.27,1.94-.32-.29-.67-.61-1.23-1.11-3.28,2.19-7.2,3.09-11.29,4.39.37,1.94-.24,3.7-1.19,5.44-1.61.64-3.28,1.41-4.37,2.26-3.8.26-4.64-3.91-8.24-3.95-3.64,1.66-7.5,3.95-11.91,5.16v2.45c.3.5.83.33,1.3.37q.9,2.85,3.13,4.06c1.8,4.52,5.36,7.99,7.39,12.86,0,2.33-.26,5.18.06,7.96.5,4.3-.97,8.17-2.12,12.11-.37,1.27-1.05,2.57-2.13,3.61-1.61,1.55-2.98,3.34-4.39,5.08-1.72,2.12-4.47,3.4-6.32,4.71-4.48-.18-7.4-2.89-10.97-5.17.33-1.84-.5-3.37-3.14-3.62.59-2.78,1.55-5.37,1.12-8.1-.22-1.39.38-2.8-.84-4.19-.52-.6-.63-2.4.45-3.63.78-.88,1.06-2.19,1.64-3.47.76-.45,2.05-.57,2.56-1.66,2.86-6.13,5.82-12.21,9.1-18.14.28-.5.04-1.3.04-1.92ZM467.02,45.73v-13.31c-1.17-.91-.99-2.77-2.53-3.48h-2.05c-2.22,2.69-5.17,4.72-7.86,7.04-1.92,1.66-3.87,3.36-5.04,5.84-1.06,2.25-3.6,3.26-5.26,5.15-3.82,4.33-7.62,8.86-13.08,10.96,1.32,2.64,3.78,3.16,5.85,4.27-.11,1.58,1.36,2.1,2.08,3.12v2.49c0,3.98-.39,8.01.11,11.93.48,3.77,1.78,7.42-.08,11.15-.18.36-.12,1.16.14,1.38,1.44,1.2.64,2.77.8,4.16.15,1.29-.35,3,.31,3.82,1.78,2.21.03,3.9-.4,5.95,1.56.51,1.09,1.82,1.09,2.92.02,8.46.03,16.92,0,25.38,0,1.08.22,2.14-.63,3.24-1.14,1.47-.08,2.71,1.17,3.72,1.13,0,2.29.02,3.45-.02.29,0,.59-.17.85-.33,3.96-2.28,8.3-2.87,12.56-2.63,1.94-1.85,3.77-3.44,4.42-5.46v-5.65c-4.34.26-8.32,2.06-12.34,2.14-1.15-3.48-6.34-4-5.36-8.55,1.01-1.27,2.32-2.5,4.03-3.01,1.68-.51,2.99-1.58,3.72-2.9,1.56-2.81,4.34-4.6,5.79-7.45.05-.1.6.06.92.1.73.68.2,1.56.41,2.47-3.12,1.27-3.64,4.39-4.89,7.27,4.05,2.88,6.62-.72,9.69-2.01,0-3.62,0-7.05-.01-10.49,0-.12-.22-.24-.33-.36-.96,1.26-2.1,1.41-3.4.63-.07-.82-.14-1.61-.19-2.19-1.88-2.14-4.22-2.46-6.54-2.59-.61-1.34-1.18-2.59-1.73-3.82-1.44.13-1.89-.42-1.2-2.15,3.45,1.25,6.59-1.58,10.05-.78,1.8-1.9,3.78-3.38,4.41-5.48v-7.17c-.75-.51-1.03-1.5-2.04-1.36-5.39,3.92-10.94,6.9-17.53,3.62-1.97-2.96-.98-6.11-1.21-8.46.81-2.7,2.34-3.79,4.47-4.14,1.23,1.57,2.94,2.37,4.72,3.01,3.6-2.22,7.41-3.84,11.48-4.22,1.02-3.02,1.94-5.85-.97-8.42,1.63-.43,1.33-1.65,1.12-2.51-.21-.88-.9-1.7-2.01-1.79-2.77,1.45-5.62,2.46-8.69,3.17-1.77.41-3.44-.98-4.62-.08-2.76,2.13-4.52.22-7.55-1.01,2.64-1.72,4.19-3.46,6.55-4.06,2.13-.55,3.96-1.71,5.78-2.85,2.24-1.41,4.07-3.7,7.16-3.15.85-1.72,3.37-.17,4.45-3.09Z"/><path class="cls-1" d="M496.4,149.44c.97,1.13,2.39,1.52,3.67,1.95,7.09,2.39,10.94,4.48,16.91,8.51,1.5,1.01,2.03,2.59,3.37,3.58,1.32.97,2.46,2.18,2.97,2.64,1.64,4.92,2.55,8.93-.5,12.76v4.85c-2.14,2.07-4.27,4.15-6.73,6.53-2.41-.15-5.33.59-7.99-1.29-.2-.47-.31-1.15-.69-1.59-1.26-1.43-2.43-2.67-2.94-4.79-.8-3.32-2.6-4.05-7.07-4.28-.52-1.04-1.07-2.11-1.71-3.39,1.23-1.93,1.17-4.16,1.25-6.41.06-1.77-.77-3.25-1.77-4.23-3.66-3.58-5.73-8.74-10.78-10.92-.14-1.61-1.54-2.35-2.41-3.46,2.21-1.76,4.55.49,7-.31,2.25-.74,4.93-.16,7.42-.16Z"/></svg>