<?xml version="1.0" encoding="UTF-8"?><svg id="_图层_1" xmlns="http://www.w3.org/2000/svg" viewBox="0 0 665.47 163.54"><defs><style>.cls-1{fill:#020202;}.cls-1,.cls-2,.cls-3,.cls-4,.cls-5,.cls-6,.cls-7,.cls-8,.cls-9,.cls-10,.cls-11,.cls-12,.cls-13,.cls-14,.cls-15,.cls-16,.cls-17,.cls-18,.cls-19,.cls-20,.cls-21{stroke-width:0px;}.cls-2{fill:#828282;}.cls-3{fill:#040404;}.cls-4{fill:#000;}.cls-5{fill:#858585;}.cls-6{fill:#9a9a9a;}.cls-7{fill:#515151;}.cls-8{fill:#747474;}.cls-9{fill:#979797;}.cls-10{fill:#6a6a6a;}.cls-11{fill:#010101;}.cls-12{fill:#4f4f4f;}.cls-13{fill:#686868;}.cls-14{fill:#757575;}.cls-15{fill:#a7a7a7;}.cls-16{fill:#606060;}.cls-17{fill:#9f9f9f;}.cls-18{fill:#787878;}.cls-19{fill:#878787;}.cls-20{fill:#030303;}.cls-21{fill:#4d4d4d;}</style></defs><path class="cls-8" d="M295.33,119.52c-3.33,3.47-5.19,7.87-7.16,12.1-1.72,3.7-4.39,5.61-8.11,6.21-1.77.28-2.95,1.23-4.16,2.28-9.33,8.03-19.57,14.83-29.39,22.21-2.45,1.84-4.45,1.56-6.02-.82-1.63-2.46-.06-3.74,2.11-4.87,4.49-2.34,7.45-6.48,11.01-9.91,7.27-6.99,14.47-14.06,22.34-20.39,1.15-.93,2.16-2.06,3.72-2.42.56-.13,1.41-.56,1.49-.98,1.34-7.04,7.93-10.31,11.3-15.88,1.66-2.75,4.05-5.01,5.07-8.2.37-1.15.86-2.2,0-3.1-1.86-1.96-4.11-3.5-5.05-6.31-.35-1.06-2.01-.69-3.05-.19-1.23.59-2.48,1.22-3.59,2.01-3.33,2.38-6.7,3.21-10.34.69-4.36-3.02-6.75-7.09-5.72-12.43.55-2.83,3.11-4.45,5.6-5.56,1.49-.66,2.77.41,2.77,2.09,0,3.92,2.63,2.76,4.33,2.03,6.37-2.77,10.87-7.4,12.21-14.41.61-3.2,1.5-6.29,2.31-9.42.43-1.68,1.13-3.28,2.89-3.54,2.06-.31,2.56,1.83,3.23,3.12.65,1.24.55,2.88.81,4.55,2.01-.36,2.46-1.84,2.71-3.45.4-2.57,1.41-4.41,4.43-3.4,2.96.99,4.17,3.5,2.91,6.16-2.32,4.9-4.66,9.79-7.26,14.54-1.19,2.18-1.55,4.73-3.31,6.64-.81.89-.95,2.16.12,2.99.98.76,1.87-.01,2.65-.66,4.29-3.6,8.55-7.24,12.87-10.8,1.45-1.2,1.99-2.81,2.52-4.48,1.15-3.65,3.89-5.31,7.64-4.65,4.86.86,14.82-4.47,16.5-9.03,3.63-9.86,8.6-19.24,10.36-29.78.51-3.08,3.06-5.15,5.85-6.41,2.74-1.23,4.48.19,4.48,3.33,0,1.12-.04,2.24-.07,3.36-2.33,3.86-3.55,8.19-4.99,12.39-1.49,4.33,2.06,7.78,6.65,6.89,2.71-.53,4.34,1.3,5.29,3.28,1.19,2.48-.68,4.44-2.21,6.15-1.15,1.29-2.62,2.28-3.92,3.43-.45.4-1.04.86-.79,1.54.25.67.94.7,1.59.69,2.06-.04,4.33-.69,4.93,2.46.56,2.94-.22,5.1-2.83,6.63-5.98,3.52-11.94,7.08-17.9,10.64-.41.25-.77.59-1.31,1.01,2.85,3.43,6.92,4.64,10.6,6.08,11.53,4.5,23.22,8.45,35.54,10.51,3.93.66,8.08,1.34,11.91,2.91,1.71.7,3.5.95,5.45.4,3.52-.98,6.37.67,7.83,3.64,1.3,2.66-.27,5.41-2.11,7.42-8.57,9.38-19.64,14-31.92,12.48-7-.87-15.26-1.96-19.88-9.3-.46-.72-1.11-1.35-1.76-1.93-3.13-2.83-4.07-2.62-5.93,1.1-.66,1.33-1.51,2.56-2.27,3.84-.29-.04-.58-.07-.86-.11-.04-3.01,2.51-4.98,3.12-7.8.33-1.53,2.25-1.48,3.49-.63,1.52,1.04,3.33,1.81,4.33,3.48,4.47,7.42,12.24,8.81,19.62,9.57,12.14,1.25,22.88-2.57,31.36-11.81,1.8-1.96,1.64-4.36.92-6.21-.62-1.59-2.71-3.6-4.77-2.62-2.83,1.34-5.16.43-7.7-.36-1.9-.59-3.83-1.08-5.77-1.49-8.86-1.87-17.75-3.53-26.38-6.45-7.75-2.62-15.48-5.13-22.62-9.2-1.55-.88-3.47-1.49-3.36-3.55.11-1.99,2.2-2.47,3.64-3.33,5.51-3.32,11.03-6.61,16.57-9.87,1.88-1.1,2.06-2.84,1.54-4.56-.61-2.02-2.46-1.3-3.84-1.14-4.21.49-7.37,3.41-11.1,5.02-1.18.51-2.39,1.52-3.21.09-.85-1.48-.09-2.81,1.47-3.69,1.86-1.04,3.9-1.46,5.88-2.14,4.4-1.52,6.32-6.17,10.19-8.51,1.16-.7,1.4-2.92.65-4.54-.7-1.51-2.15-1.44-3.56-1.41-6.98.17-9.97-4.76-7.13-11.28,1.67-3.85,2.79-7.94,4.14-11.93.38-1.12.47-2.26-.54-3.1-1.05-.87-1.8.27-2.69.54-3.11.93-4.4,3.75-4.63,6.24-.69,7.64-4.34,14.19-7.05,21.06-1.56,3.93-2.05,8.61-5.84,11.37-4.97,3.61-9.69,7.87-16.68,6.57-2.4-.44-4.37.12-4.49,3.39-.07,2.03-1.65,3.6-3.17,4.9-4.46,3.8-9.01,7.5-13.48,11.28-1.32,1.11-2.5,1.39-3.96.2-1.56-1.28-1.68-2.83-.69-4.3,3.12-4.61,4.82-9.98,8-14.59,1.49-2.16,2.21-4.91,3-7.47.48-1.56-.14-3.08-1.91-3.51-1.73-.42-2.38.96-2.9,2.26-.37.92-.41,2.03-.95,2.79-.68.96-1.48,2.31-2.91,1.93-1.22-.32-1.43-1.58-1.43-2.77,0-1.99-1-3.52-2.25-5.02-2.28,1.2-2.34,3.35-2.72,5.43-1.83,9.92-5.08,18.76-16.05,22.21-2.8.88-4.23,1.09-4.36-2.41-.09-2.34-1.17-2.81-3.1-1.16-3.79,3.21-4.21,5.12-1.85,10.11,1.76,3.74,6.19,6.36,9.65,5.36,1.61-.47,3.04-1.63,4.47-2.59,3.6-2.43,6.56-1.98,8.74,1.59.74,1.21,1.59,2.26,2.69,3.06,2.08,1.52,2.24,3.12,1.16,5.48-2.52,5.53-6.07,10.46-10.44,14.39-4.48,4.04-5.53,10.23-11.3,13.73-8.47,5.13-15.03,13-22.2,19.94-3.63,3.51-6.49,7.89-11.35,10.03-1.33.59-3.1,1.25-1.91,3.24,1.21,2.03,2.67,1.5,4.35.26,9.29-6.86,18.71-13.55,27.66-20.86,1.99-1.63,3.87-3.14,6.71-3.67,2.98-.55,5.2-2.67,6.77-5.79,2.24-4.45,3.66-9.58,8.12-12.66,0,.51.01,1.03.02,1.54Z"/><path class="cls-5" d="M639.78,47.62c-1.49,7.1,5.85,7.85,10.24,10.75,2.95,1.95,6.56,2.84,9.12,5.58,3.22,3.45,3.59,6.88.86,10.68-.59.82-1.06,1.63-1.28,2.66-.84,3.96-3.51,6.3-7.26,7.21-5.07,1.22-9.08,4.46-13.6,6.71-1.71.85-2.17,2.8-2.5,4.77-1.22,7.2-1.9,14.64-7.35,20.35-.91.96-1.08,2.44.8,2.11,3.15-.55,6.49,1.05,9.51-.91.47-.3,1.29-.41,1.82-.23,6.81,2.43,14.1,3.73,19.92,8.52,2.95,2.43,4.09,5.85,5.26,9.26.4,1.17.05,2.12-.78,3.07-5.55,6.3-11.16,7.24-18.86,3.77-7.31-3.3-15.12-2.98-22.76-1.53-6.48,1.23-12.84,3.53-19.44,3.49-6.48-.04-13.3.59-19.09-3.52-2.8-1.99-4.28-4.77-4.32-8.25-.02-1.99-.19-3.95-.64-5.92-.79-3.47,2.89-8.98,7.86-10.6,9.48-3.08,18.46-7.81,28.77-8.28,6.48-.29,7.41-1.97,7.11-8.71-.06-1.33-.64-1.48-1.58-1.38-.73.08-1.43.4-2.16.57-10.28,2.32-14.85.58-21.06-8.03-1.24-1.71-2.29-3.58-3.68-5.16-3.8-4.28-1.66-6.69,2.83-7.96,4.55-1.29,9.15-2.4,13.76-3.46,3.72-.86,6.79-3.54,10.91-3.43,1.66.04,1.85-2.02,1.89-3.59.35-12.99-1.6-25.49-7.23-37.36-1.76-3.72-1.85-7.98-2.16-12.07-.26-3.48-.27-6.99-.23-10.48.03-3.3,1.96-4.25,4.99-2.92,5.31,2.34,7.78,7.27,10.65,11.7,6.19,9.56,10.23,19.89,9.67,32.62ZM613.74,74.5c-1.27.11-2.66-.32-3.72.78h0c-3.49-.3-6.62.95-9.74,2.25h0c-1.69-.07-3.18.46-4.49,1.51h0c-3.04,1.52-1.68,2.98.05,4.44h0c.56,2.24,1.75,4.03,3.75,5.25h0c.75,2.69,2.64,4.31,5.11,5.35.52.5,1.03.99,1.55,1.49,1.4,2.73,3.83,2.28,6.18,1.97,3.19-.42,6.36-.95,9.55-1.35,1.12-.14,2.29-.06,2.7,1.35,1.73,5.98-1.34,10.12-7.6,10.86-4.1.49-8.3.71-12.23,2.21h0c-3.02,1.22-6.04,2.44-9.06,3.66h0c-3.52.55-7.12.88-9.71,3.79h0c-1.41,0-2.09.81-2.37,2.08-.73.78-1.45,1.57-2.18,2.35-.89.46-1.41,1.48-1.16,2.17,1.14,3.25.68,6.71,1.44,9.94.74,3.15,3.18,5.71,6.22,6.46,7.79,1.91,15.74,2.63,23.67.49,11.05-2.99,22.16-4.55,33.51-1.78,3.12,1.86,6.19,3.7,10.12,2.5,2.3-.7,3.39-3.01,5.47-3.8,2.96-1.13,2.67-2.87,1.82-5.35-2.37-6.9-8.19-9.5-14.33-11.18-3.07-.84-5.97-3.27-9.25-2.39-3.5.94-6.95.45-10.41.63-1.31.07-2.9.42-3.53-1.3-.57-1.55.53-2.53,1.42-3.6,2.82-3.38,5.05-6.99,5.51-11.59.33-3.33,1.31-6.6,1.96-9.9.33-1.69,1.16-3.08,2.61-3.94,2.46-1.45,4.97-2.82,7.52-4.09,2.66-1.32,5.28-2.65,8.15-3.6,3.48-1.15,4.22-4.68,5.72-7.7,2.69-5.44,2.45-7.51-2.47-11.26-3.4-2.59-8.09-2.57-11.11-5.8-.6-1.79-1.86-2.53-3.71-2.3h0c-1.86-2.04-2.42-4.42-2.23-7.16.18-2.59.21-5.24-.07-7.82-.97-8.89-3.93-17.04-9.6-24.08-2.97-3.78-5.08-8.34-9.61-10.7-1.9-.99-3.11-.83-2.91,1.79.47,6.2.87,12.42,1.29,18.62,1.46,5.94,4.06,11.49,5.95,17.28h0c1.93,8.92,1.5,17.97,1.48,27h0c-1.44,1.03-2.99,1.6-4.81,1.49-1.33-.08-2.79-.14-3.45,1.49h0c-1.23.04-2.43.12-3,1.49h0Z"/><path class="cls-5" d="M92.7,118c2.05-9.12.78-18.54-.56-27.9-.72-5-1.83-10.08-5.91-13.79-.87-.79-1.41-2.01-.47-2.98.95-.99,1.78.16,2.55.68,6.77,4.55,11.52,10.28,13.73,18.55,1.51,5.66,2,11.45,3.53,17.05.36,1.32-.75,3.4,1.27,3.83,2.01.43,4.2.49,5.9-1.35,1.55-1.67,2.81-3.64,3.47-5.67,1.78-5.47,5.37-9.98,7.51-15.23.42-1.03.97-2.08,1.03-3.15.09-1.62-.09-2.74-2.56-2.06-6.81,1.89-13.51,1.91-19.47-2.81-.78-.62-1.92-.96-1.39-2.23.43-1.05,1.44-1.23,2.5-1.24,7.9-.03,14.1-5.14,21.33-7.19.59-.17,1.05-1,1.46-1.59,3.24-4.73,6.94-6.05,12.39-4.23,3.77,1.26,6.92,3.66,9.15,6.79,2.36,3.3.75,7.05-.54,10.32-3.16,8.01-8.57,14.74-13.42,21.74-1.55,2.25-.66,2.88.89,3.95,5.06,3.49,6.46,12.27,2.57,17.02-1.92,2.35-4.51,1.76-6.79.56-5.43-2.87-11.04-4.29-17.21-3.07-2.26.45-3.35.76-2.88,3.72.59,3.74,1.72,8.07-2.59,10.88-1.24.81-2.38,1.49-3.65.18-3.72-3.81-7.94-7.1-10.46-12.06-1.43-2.81-.86-5.58-1.39-8.71ZM89.68,77.72c2.47,5.59,4.03,10.97,4.55,16.66.71,7.8,2.37,15.56-.06,23.37-.42,1.35-.07,2.97.09,4.45.65,6.16,5.24,9.68,9.19,13.63.97.97,1.82,2.22,3.45,1.56,1.69-.68,2.44-2.09,2.51-3.84.08-2.24.07-4.47-.47-6.7-.35-1.45-.49-2.98,1.53-3.64,6.47-2.1,12.62-1.67,18.66,1.64,1.96,1.07,4.61,2.63,6.64.9,3.08-2.63,2.54-6.52,2.16-10.16-.28-2.65-1.92-4.25-4.24-5.16-3.9-1.53-3.78-1.95-1.2-5.26,5.39-6.92,10.8-13.89,13.81-22.3,2.54-7.07,2.31-7.85-3.27-12.46-5.63-4.65-10.69-4.13-15.31,1.47-.86,1.04-1.96,2.4-3.11,2.58-4.41.68-7.98,3.3-12.04,4.76-2.91,1.05-5.85,1.92-8.95,2.51,4.67,3.31,9.4,5.29,15.01,3.23,1.14-.42,2.44-.5,3.67-.57,3.66-.2,5.19,2.22,3.55,5.48-2.74,5.42-5.53,10.81-8.16,16.28-1.19,2.47-2.15,5.07-4.2,6.95-2.03,1.85-4.71,2.28-7.29,2.15-1.35-.07-1.47-1.83-1.69-3.05-1.25-6.82-1.72-13.85-4.13-20.38-2.02-5.46-3.94-11.28-10.7-14.09Z"/><path class="cls-18" d="M67.54,80.55c2.6.64,5.08,1.48,7.89,1.48,3.24,0,3.91,4.84,1.44,8.1-4.43,5.83-10.69,9.57-16.02,14.37-.46.42-.97.79-1.44,1.19-3.51,3-3.82,4.38.52,6.26,2.64,1.14,4.27,4.31,8.07,3.26,1.31-.36,1.78,1.94,1.66,3.27-.29,3.38,1.57,5.76,3.08,8.51,3.56,6.49,6.59,13.29,8.93,20.31,1.29,3.86-.63,7.66-3.48,8.52-3.31.99-7.37-1.14-9.17-4.58-3.21-6.16-4.6-12.77-5.26-19.6-.51-5.26-2.29-10.13-4.71-14.77-.52-1-1.27-2.52-2.69-2.08-1.27.38-.86,1.92-.92,3-.42,6.99-2.28,13.71-4.57,20.2-1.87,5.3-4.85,10.24-7.61,15.18-1.57,2.81-6.38,3.67-8.82,1.58-1.63-1.4-3.15-1.57-5.11-1.4-5.41.47-8.3-1.48-10.18-6.55-.59-1.59-.14-3.18,1.51-3.03,6.84.63,8.21-5.26,10.95-9.17,2.89-4.13,4.92-8.87,7.46-13.26.8-1.39.89-2.76.94-4.55-4.62,1.72-9.06,3.38-13.5,5.04-.56-.03-1.12-.06-1.68-.09,4.3-3.32,9.67-4.13,14.55-6.06,1.86-.74,3.53-.19,2.2,3.01-3.36,8.05-7.89,15.39-12.7,22.59-1.23,1.84-2.76,3.57-5.06,4.21-3.23.89-3.43,1.56-1.32,4.24,2.04,2.59,4.71,3.45,7.58,2.06,1.88-.91,2.92-.57,4.23.73,3.07,3.07,6.14,2.72,8.39-1.16,2.42-4.17,5.11-8.31,6.72-12.81,3.34-9.31,4.18-19.23,6.07-28.89.36-1.84.7-3.42,2.21-4.47,2.56-1.76,4.84-3.89,7.27-5.79,2.97-2.32,6.38-4.37,8.56-7.65,1.16-.69,2.24-1.45,2.26-3,.67-1.13,1.74-2.1,1.4-3.62-1.04-4.38-4.46-1.59-6.74-2.24-.22,0-.44-.04-.65-.1l-2.24-2.25ZM58.56,113.14c4.63,6.62,6.59,14.06,7.31,21.76.54,5.81,2.02,11.19,4.57,16.36,1.06,2.16,5.71,4.11,7.71,3.31,1.92-.77,2.85-4.84,1.85-7.48-3.1-8.18-6.93-15.97-10.89-23.77-2.56-5.03-6.76-7.07-10.55-10.17Z"/><path class="cls-16" d="M538.85,123.26c-.57,2.27-2.2,3.86-3.64,5.56-5.91,6.94-10.84,14.53-14.91,22.67-1.48,2.97-1.88,6.35-3.15,9.46-1.77,4.34-5.11,1.86-7.74,2.15-2.43.27-2.63-1.72-2.62-3.59.02-3,.05-5.99,0-8.99-.05-2.62,1.04-4.67,2.45-6.85,7.14-11.08,17.07-19.81,25.1-30.09,7.73-9.89,14.51-20.52,21.71-30.82,2.74-2.99,5.48-5.99,8.63-9.42-3.85-.43-5.3,2.02-7,3.54-3.15,2.82-7.32,4.67-9.09,8.9h0c-2.79,2.4-6.44,3.02-9.61,4.65-.31-.06-.61-.11-.92-.17.43-.82,1.11-1.37,1.98-1.62,3.98-1.14,6.59-3.93,9.55-6.69,3.87-3.61,7.7-7.49,12.48-10.06,1.04-.56,2.26-1.62,3.3-.18.97,1.34.34,2.59-.78,3.63-5.64,5.23-9.39,11.91-13.77,18.1-6.89,9.75-12.98,20.09-21.5,28.62-5.73,5.74-10.5,12.29-15.58,18.59-4.13,5.13-5.43,10.32-4.83,16.45.17,1.74-.67,3.94,2.25,4.3,2.54.32,4.19-.27,5.13-3.01,1.52-4.42,2.64-8.93,5.13-13.1,4.62-7.73,10.32-14.63,15.4-21.99,2.15-3.12,3.21-6.93,6.47-9.38,3.28-2.47,5.67-1.85,7.04,2.05.66,1.88,1.08,3.94,1.28,5.75.77,6.79,3.76,13.47,1.5,20.5-.43,1.32-.43,2.87.41,3.98,1.08,1.44,1.11,2.99,1.15,4.61-.05.58-.1,1.17-.15,1.75-.38-3.44-3.49-6.47-2.58-9.82.93-3.42.94-6.59.32-9.9-1.08-5.83-1.16-11.88-3.59-17.43-.95-2.17-2.55-2.37-4.18-1-2.78,2.33-5.27,4.93-5.63,8.84Z"/><path class="cls-17" d="M538.85,123.26c.36-3.91,2.85-6.51,5.63-8.84,1.63-1.37,3.23-1.17,4.18,1,2.44,5.55,2.51,11.6,3.59,17.43.61,3.31.6,6.47-.32,9.9-.91,3.35,2.2,6.38,2.58,9.82.06,1.03.59,1.73,1.47,2.21.55.71,1.1,1.42,1.65,2.13l.49.94c1.34.99,2.65,1.03,3.92-.14h0c2-.37,4.18.79,6.05-.71,1.02-.54,1.36-1.4,1.17-2.5-.5-2.81-.6-5.77-1.59-8.41-2.97-7.93-3.3-15.94-2.05-24.22.73-4.83,2.28-9.68.45-14.7-.46-1.26.22-2.93.39-4.41.14-1.24.82-2.15,2-2.43,1.17-.28,1.8.7,2.35,1.51,1.88,2.8,3.93,5.4,6.65,7.5,1.81,1.4,3.74,1.53,5.63.92,2.19-.71,4.05-2.12,6.47-2.56,1.78-.32,1.96-2.44,1.54-4.11-.55-2.2-8.22-7.9-10.66-8.05-3.34-.2-6.71.23-10.02-.68-1.65-.45-2.85.55-3.89,1.69-3.19,3.5-3.41,8.09-4.53,12.36q-3.76,6.18-8.29,4.69c-.25-.24-.5-.49-.76-.73-.12-1.44-1.5-1.88-2.24-2.83-.7-.9-1.69-2.1-.95-2.98,2.94-3.49,4.2-8.31,8.18-10.92,4.15-2.71,8.25-5.4,12.08-8.6,7.95-6.63,14.83-14.3,21.95-21.75.84-.88,1.66-1.89,1.56-3.27h0c.75-.5,1.51-.99,2.26-1.49,0,2.98-2.34,4.58-4,6.49-7.7,8.86-16.19,16.92-25.18,24.46-.76.63-1.57,1.3-2.47,1.65-6.2,2.42-9.31,7.84-12.8,12.92-.66.96-.65,1.88.16,2.71.61.63,1.28,1.2,1.96,1.74,3.85,3.03,5.89,2.14,7.15-2.83.85-3.36,1.78-6.75,3.14-9.93,1.79-4.17,3.78-5,8.32-4.4,1.23.16,2.52.31,3.73.13,6.3-.91,10.61,2.54,14.78,6.49,1.96,1.86,1.7,3.97,1.32,6.23-.38,2.29-2,2.5-3.89,2.55-.67.02-1.37.51-1.99.88-4.93,2.93-7.04,2.72-11.12-1.43-2.09-2.12-3.98-4.44-6.12-6.86-1.11,1.21-1.69,2.99-1.32,4.28,1.89,6.46-.74,12.58-1.05,18.86-.36,7.5-.36,14.97,2.96,21.99,1.46,3.09.77,6.38.8,9.6,0,.95-.59,1.63-1.36,2.12-4.01,2.55-12.49.47-14.55-3.83-1.6-3.35-2.7-6.94-3.98-10.45-.16-.44-.19-1.04-.04-1.47,3.12-8.84-.74-17.13-2.08-25.6-.46-2.93-1.97-2.67-4.22-1.16-2.69,1.8-2.5,5.41-5.11,7.09Z"/><path class="cls-6" d="M357.4,114.89c.29.04.58.07.86.11,1.32,4.82-1.87,9.14-1.51,13.88.47,6.2.98,12.41.75,18.65-.14,3.77-1.24,7.19-4.13,9.61-3.72,3.11-8.05,2.9-12.23-.3-2.18-1.67-4.05-3.66-7.16-1.46-.91.64-2.68.17-4.03.05-2.81-.26-5.74-1.93-7.86,1.77-.56.97-2.46.33-3.7-.59-3.97-2.99-7.94-5.98-12.08-8.73-1.84-1.22-1.9-2.85-1.1-4.16,1.76-2.9,1.36-5.98,1.44-9.05,1.58-3.49,1.82-7.29,1.89-10.97.11-5.4,1.56-10.59,1.79-15.95.15-3.27,2.69-4.84,5.31-6.19.2.07.4.09.61.07,3.33,3.81,3.34,8.74,4.36,13.29.5,2.24,1.57,3.07,3.68,3.42,4.14.69,8.18.23,12.24-.56,2.72-.53,2.22-2.55,2.22-4.38,0-1.87-.57-3.16-2.8-3.02-6.15.4-10.01-4.6-15.17-6.54-.84-.32-.87-1.46-.68-2.36.25-1.19,1.24-1.4,2.25-1.63,4.62-1.04,8.97-2.71,12.97-5.31,3.7-2.41,3.81-3.41.36-6.37-.27-.23-.4-.62-.59-.93.49,0,.99,0,1.48,0,4.38,3.43,4.16,6.68-.82,8.9-3.84,1.72-7.48,4.01-11.75,4.64-.73.11-1.55.14-1.61,1.17-.04.7.34,1.19.91,1.51,4.09,2.25,7.77,5.49,12.83,5.37,2.27-.05,4.07.54,4.26,3.08.2,2.67.83,5.47-2.7,6.94-4.12,1.72-8.35,1.17-12.55,1.16-4.48-.01-5.73-1.22-6.23-5.74-.34-3.12-.82-6.16-2.09-9.06-.67-1.54-1.67-1.9-2.88-.82-1.18,1.05-2.32,2.12-2.46,4-.88,12.17-1.94,24.32-4.91,36.22-.19.77-.17,1.58.53,2.04,4.24,2.81,7.93,6.4,12.47,8.8,1.08.57,2.11,1.02,2.79-.47,1.2-2.63,3.48-2.19,5.48-1.68,2.66.68,5.08,1.57,7.81-.15,1.32-.82,3.03-.01,4.46,1.08,1.54,1.18,2.9,2.65,5.08,2.99,7.17,1.13,10.69-2.78,10.78-9.68.09-6.74.11-13.48-.53-20.21-.18-1.93-.09-3.96,1.14-5.69,2.04-2.03.51-4.51.84-6.75v-.02Z"/><path class="cls-14" d="M39.98,73.44c-7-1.02-7.1-7.31-5.13-12.97,2.51-7.19,4.38-14.42,4.88-22.02.2-3.04-1.07-4.75-4.07-5.15-1.46-.19-3-.66-3-2.24,0-1.95,1.94-1.41,3.17-1.67,5.71-1.2,11.14.69,16.56,1.85,2.73.58,3.61,3.66,3.94,6.29.39,3.1.37,6.22-1.04,9.17-.65,1.37-.85,2.85-.23,4.53,2.18-.96,4.37-1.78,6.43-2.85,5.49-2.85,10.35-2.27,14.85,1.65,2.36,2.06,2.13,4.21.91,6.67-2.27,4.59-6.8,6.16-10.89,8.39-9.71,5.3-20.46,8.54-29.6,14.96-.91.64-1.92,1.05-2.66.14-.71-.88.3-1.61.88-2.18,1.48-1.45,3.06-2.8,4.99-4.55ZM35.78,30.79c4.96,3.64,5.09,3.64,4.95,8.01-.24,7.82-1.53,15.42-4.95,22.59-1.22,2.56-.85,5.52.04,8.04.74,2.08,3.22,1.27,5.03,1.39.72.05,1.43-.02,1.78.94,1.08,3,1.09,2.96,3.97.98,1.12-.77,2.26-1.67,3.52-2.03,7.34-2.07,13.64-6.33,20.46-9.48,2.99-1.38,4.38-3.93,6.01-6.39.64-.96.71-2.06-.17-3.1-3.2-3.79-9.46-4.96-13.82-2.4-2.33,1.36-5.06,1.94-7.15,3.8-.65.58-1.72.6-2.47.07-.95-.66-.3-1.48-.05-2.31.84-2.84,1.08-5.79,2.22-8.61,1.3-3.21-1.26-9.97-3.73-10.02-5.18-.1-9.98-3.38-15.65-1.48Z"/><path class="cls-20" d="M575.42,24.4c-.99,0-1.99.02-2.98,0-1.32-.03-2.4-.48-1.59-1.99,1.23-2.3.27-4.23-.5-6.36-1.04-2.91-1.89-5.92-2.5-8.95-.48-2.39.85-3.06,3.12-2.47,4.55,1.18,8.3,3.94,11.72,6.8,2.17,1.81,3.32,5.13,3.23,8.28-.06,2.27-1.84,3.46-3.86,3.94-2.17.51-4.39.88-6.65.75Z"/><path class="cls-14" d="M538.05,90.25c.31.06.61.11.92.17-3.42,2.68-7.52,1.58-11.34,2.06,0,0,0,0,0,0-2.51-1.95-2.89-5.39-5.22-7.47-.4-.63-1.15-1.26-1.15-1.89.05-6.71,1.36-13.13,5.26-18.74,1.17-1.69,2.29-.57,2.6.78.42,1.81.32,3.73.64,5.56.44,2.51,1.39,3.41,4.39,2.47,9.56-3,18.24-7.78,26.79-12.75,5.89-3.43,11.97-6.6,17.42-10.78.46-.35,1.11-.47,1.67-.7-.38,1.62-2.07,1.96-2.98,3.07-1.76,1.22-2.85,3.32-5.14,3.83-1.29-.05-2.29.5-3.1,1.45-.43.29-.86.58-1.29.86-1.67-.22-2.46.91-3.21,2.1-.42.31-.84.61-1.26.92-1.89.06-3.46.8-4.69,2.23-1.02.69-2.04,1.39-3.07,2.06-6.05,3.96-12.72,6.43-19.49,8.88-5.22,1.88-6.83,1.54-7.66-3.93-.11-.71.08-1.62-.95-1.73-.84-.09-1.47.49-1.69,1.22-.56,1.9-.71,3.95-1.51,5.73-2.32,5.16.08,9.37,2.44,13.59.6,1.08,1.68,1.76,3.11,1.7,2.85-.12,5.73.29,8.5-.69Z"/><path class="cls-19" d="M24.82,121.75c.56.03,1.12.06,1.68.09-5.5,3.54-11.36,6.71-17.67,7.98-7.16,1.44-9.76-2.72-8.56-10.4.58-3.74,3.22-7.18,5.04-10.7.45-.88,1.48-1.61,2.52-1.04.99.55.14,1.53.14,2.33.02,2.75-2.41,4.55-2.58,7.24-.17,2.62.48,3.81,3.35,3,6.69-1.89,13.18-4.27,19.45-7.3,6.49-3.13,12.18-7.57,18.46-11.03,2.04-1.12,2.64-3.16,3.45-5.08.14.11.28.23.42.34-.35,1.41-.7,2.82-1.05,4.23-4.12,3.85-9.46,5.8-14,9.04-7.52,5.38-16.51,7.75-24.98,11.11-5.01,1.98-7.15-.14-6.14-5.5.07-.37.31-.95-.51-1.22-.7,1.07-1.35,2.33-1.82,3.41-1.15,2.65-1.31,5.79.4,8.21,1.24,1.75,3.83,3.12,5.91,2.35,5.61-2.05,11.01-4.68,16.49-7.07Z"/><path class="cls-10" d="M311.07,31.04c2.84.11,5.6.36,8.46-.59,6.6-2.18,9.04-6.75,8.69-13.35-.1-1.86.13-3.73.28-5.6.16-2.02-.33-3.49-2.27-4.64-2.49-1.46-2.06-3.3-.02-5.07,3.49-3.03,10.92-1.9,13.87,1.02,2.36,2.33.9,5.78-.25,8.46-1.11,2.6-2.16,4.47,1.99,4.59,1.66.05,2.11,1.37,2.54,2.78,1.91,6.34-1.11,10.76-5.55,14.66-2.32,1.27-1.39,3.42-1.44,5.3,0,0,0,0,0,0-.3-.04-.6-.07-.9-.11-.52-3.08.23-5.68,2.84-7.58,2-1.46,2.89-3.73,4.01-5.77,1.55-2.82-.27-7.2-3.3-8.14-2.25-.7-3.04-1.92-2.23-4.18.71-1.97,1.26-4,1.98-5.97.66-1.8-.19-3.23-1.59-3.71-2.91-1-5.95-1.9-9.11-1.17-1.26.29-2.32,1.03-2.71,2.34-.44,1.49,1.18,1.31,1.75,1.99.56.66,1.3,1.21,1.76,1.93.86,1.34-1.23,17.58-2.43,18.74-4.47,4.31-9.75,6.22-15.97,5.3-1.29-.19-2.91-1.13-3.71.49-.8,1.61,1.02,2.3,1.82,3.31.6.76,1.57,1.3,1.45,2.48-1.63-.51-2.03-2.71-3.92-2.87-.22-.26-.43-.51-.65-.77-.29-3.48,1.71-4.23,4.62-3.89Z"/><path class="cls-21" d="M67.54,80.55c.75.75,1.49,1.5,2.24,2.25-.77.42-1.66.87-1.45,1.92.75,3.84-1.78,5.61-4.5,7.26-1.5.91-2.78,3.01-4.85,1.66-2.04-1.33-1.31-3.63-.99-5.48.59-3.41,1.13-6.8,1.38-10.92-1.87,2.48-2.93,4.5-2.98,6.95-.03,1.26-.18,2.5-1.5,3.17-.41-1.63,1.13-3.01.59-4.65.25-2.36.65-4.68,2.11-6.63,1.72-2.3,5.2-2.04,6.16.65.72,2.01,2.51,2.58,3.77,3.84ZM59.73,89.34c-.3,2.48.37,3.33,1.94,2.64,6-2.65,6.65-5.91,2.06-10.41-.44-.44-.9-.86-1.34-1.3-1.43-1.43-2.12-.94-2.23.88-.17,2.73-.29,5.46-.43,8.19Z"/><path class="cls-9" d="M307.1,35.7c1.89.16,2.29,2.35,3.92,2.87,1.15,1.12,2.4,2.11,3.29,3.52.86,1.38,2.01,2.62,3.83,2.65,3.81.08,6.94,1.08,8.49,5.07.89,2.3,3.09,1.83,4.87,1.5,1.93-.36,3.05-1.82,2.95-3.78-.16-3.22,1.01-6.09,2.01-9.02.3.04.6.07.9.11-.3,2.85-.51,5.72-.94,8.55-.49,3.25-2.49,5.41-5.62,6.22-3.15.81-5.01-1.28-6.11-3.75-1.3-2.95-3.68-3.59-6.38-3.57-2.69.02-4.46-.94-5.59-3.44-1.25-2.77-4.33-4.13-5.62-6.92Z"/><path class="cls-16" d="M577.04,52.02c.9-1.11,2.6-1.45,2.98-3.07,3.46-3.43,8.05-3.75,11.99-.83,5.55,4.12,6.65,7.86,3.79,12.92-.75.5-1.51.99-2.26,1.49.08-.61.06-1.26.27-1.82,2.14-5.82-.38-10.94-6.22-12.6-1.74-.5-3.17-.39-4.86.74-1.76,1.18-3.03,3.51-5.68,3.16Z"/><path class="cls-15" d="M548.58,85.77c1.78-4.23,5.94-6.08,9.09-8.9,1.7-1.52,3.15-3.97,7-3.54-3.14,3.43-5.88,6.42-8.63,9.42-.28-1.27,1.06-1.86,1.4-3.42-3.67,1.6-5.94,4.5-8.87,6.44Z"/><path class="cls-15" d="M527.63,92.48c3.82-.48,7.92.62,11.34-2.06,3.17-1.63,6.82-2.24,9.61-4.65-.19.57-.21,1.47-.59,1.67-6.39,3.24-12.52,7.62-20.35,5.04Z"/><path class="cls-19" d="M55.48,82.69c.54,1.64-1,3.02-.59,4.65-.04.22-.08.44-.14.65-.74,2.25-1.48,4.5-2.22,6.75,0,0,0,0,0,0-.67.81-1.34,1.62-2,2.44-.14-.11-.28-.23-.42-.34,1.7-3.65,3.16-7.39,3.87-11.38.2-1.13.41-2.17,1.51-2.77Z"/><path class="cls-15" d="M522.4,85c2.33,2.08,2.71,5.52,5.22,7.47-3.55-1.22-4.84-4.03-5.22-7.47Z"/><path class="cls-9" d="M311.07,31.04c-2.91-.34-4.92.41-4.62,3.89-1.26-.97-1.76-2.08-.59-3.44,1.58-1.85,3.35-1.77,5.21-.44Z"/><path class="cls-9" d="M337.35,38.61c.06-1.88-.87-4.03,1.44-5.3-.46,1.77.65,3.97-1.44,5.3Z"/><path class="cls-2" d="M336.55,87.26c-.49,0-.99,0-1.48,0-2.54-1.99-5.12-3.93-7.62-5.97-1.75-1.43-2.94-1.71-4.45.56-8.37,12.58-18.87,23.61-26.67,36.61-.25.41-.66.71-1,1.07,0-.51-.01-1.03-.02-1.54.92-1.6,1.79-3.24,2.78-4.8,7.43-11.71,17.13-21.75,24.61-33.43,1.11-1.74,2.63-1.73,4.14-.53,3.29,2.62,6.87,4.89,9.71,8.05Z"/><path class="cls-4" d="M336.55,87.26c-2.84-3.16-6.42-5.43-9.71-8.05-1.51-1.21-3.03-1.21-4.14.53-7.48,11.68-17.18,21.72-24.61,33.43-.99,1.56-1.86,3.2-2.78,4.8-4.45,3.08-5.88,8.21-8.12,12.66-1.57,3.12-3.79,5.24-6.77,5.79-2.85.52-4.72,2.04-6.71,3.67-8.95,7.31-18.37,13.99-27.66,20.86-1.68,1.24-3.14,1.76-4.35-.26-1.19-1.99.58-2.65,1.91-3.24,4.86-2.14,7.73-6.52,11.35-10.03,7.17-6.94,13.73-14.81,22.2-19.94,5.77-3.49,6.82-9.69,11.3-13.73,4.37-3.93,7.91-8.86,10.44-14.39,1.08-2.36.92-3.96-1.16-5.48-1.1-.8-1.95-1.86-2.69-3.06-2.18-3.57-5.15-4.03-8.74-1.59-1.43.97-2.86,2.13-4.47,2.59-3.46,1-7.89-1.62-9.65-5.36-2.35-4.99-1.94-6.9,1.85-10.11,1.94-1.64,3.02-1.18,3.1,1.16.13,3.5,1.56,3.29,4.36,2.41,10.97-3.45,14.22-12.28,16.05-22.21.38-2.07.45-4.23,2.72-5.43,1.25,1.49,2.26,3.03,2.25,5.02,0,1.2.21,2.45,1.43,2.77,1.44.38,2.23-.98,2.91-1.93.55-.77.58-1.88.95-2.79.52-1.29,1.17-2.68,2.9-2.26,1.77.43,2.39,1.95,1.91,3.51-.79,2.57-1.51,5.31-3,7.47-3.17,4.61-4.87,9.98-8,14.59-.99,1.46-.87,3.01.69,4.3,1.45,1.19,2.64.91,3.96-.2,4.48-3.78,9.02-7.48,13.48-11.28,1.53-1.3,3.1-2.87,3.17-4.9.12-3.27,2.09-3.83,4.49-3.39,6.99,1.29,11.71-2.97,16.68-6.57,3.79-2.76,4.28-7.43,5.84-11.37,2.72-6.87,6.36-13.42,7.05-21.06.23-2.49,1.52-5.31,4.63-6.24.89-.27,1.63-1.41,2.69-.54,1.02.84.92,1.99.54,3.1-1.35,3.99-2.47,8.08-4.14,11.93-2.83,6.53.15,11.46,7.13,11.28,1.42-.04,2.86-.1,3.56,1.41.75,1.62.51,3.84-.65,4.54-3.87,2.34-5.79,6.99-10.19,8.51-1.97.68-4.02,1.1-5.88,2.14-1.56.88-2.32,2.2-1.47,3.69.82,1.43,2.03.43,3.21-.09,3.73-1.62,6.89-4.53,11.1-5.02,1.38-.16,3.24-.88,3.84,1.14.52,1.72.33,3.45-1.54,4.56-5.54,3.26-11.06,6.55-16.57,9.87-1.44.87-3.53,1.34-3.64,3.33-.11,2.05,1.81,2.66,3.36,3.55,7.14,4.07,14.88,6.58,22.62,9.2,8.63,2.92,17.52,4.58,26.38,6.45,1.94.41,3.87.9,5.77,1.49,2.54.79,4.87,1.7,7.7.36,2.06-.98,4.15,1.02,4.77,2.62.73,1.86.88,4.26-.92,6.21-8.48,9.24-19.22,13.06-31.36,11.81-7.38-.76-15.16-2.15-19.62-9.57-1.01-1.67-2.81-2.44-4.33-3.48-1.24-.85-3.16-.89-3.49.63-.61,2.83-3.16,4.79-3.12,7.8,0,0,0,.02,0,.02-2.34,2-.65,4.49-.84,6.75-1.23,1.72-1.33,3.75-1.14,5.69.64,6.73.62,13.47.53,20.21-.09,6.9-3.61,10.81-10.78,9.68-2.18-.34-3.54-1.81-5.08-2.99-1.43-1.1-3.15-1.9-4.46-1.08-2.74,1.71-5.15.82-7.81.15-2-.51-4.28-.95-5.48,1.68-.68,1.49-1.71,1.04-2.79.47-4.54-2.39-8.22-5.99-12.47-8.8-.7-.46-.72-1.28-.53-2.04,2.97-11.89,4.03-24.04,4.91-36.22.14-1.88,1.28-2.95,2.46-4,1.21-1.07,2.21-.71,2.88.82,1.27,2.9,1.75,5.94,2.09,9.06.5,4.52,1.75,5.72,6.23,5.74,4.2.01,8.43.56,12.55-1.16,3.53-1.47,2.9-4.27,2.7-6.94-.19-2.55-1.99-3.14-4.26-3.08-5.06.12-8.74-3.13-12.83-5.37-.57-.32-.95-.81-.91-1.51.06-1.03.88-1.06,1.61-1.17,4.28-.64,7.91-2.93,11.75-4.64,4.97-2.22,5.2-5.47.82-8.9ZM322.51,132.34c.21,1.86.31,3.74.66,5.57.85,4.49,3.86,5.66,7.58,2.98,1.41-1.02,2.63-2.33,4.11-3.2,1.19-.7,2.75-.96,2.42-2.77-.28-1.55-1.31-2.67-2.86-3.15-2.72-.85-5.52-1.48-8.17-2.5-3.32-1.28-3.96.25-3.74,3.07ZM340.07,66.39c-2.33.23-6.01,2.35-5.76,3.19.77,2.62,4.01,3.09,6.55,3.75,1.45.38,3-.36,2.75-2.03-.29-2-.04-4.75-3.55-4.91Z"/><path class="cls-4" d="M581.53,122.49c.73-.78,1.45-1.57,2.18-2.35,1.23-.19,1.84-1.09,2.37-2.08,0,0,0,0,0,0,1.95.53,3.24-2.37,5.4-1.12-2.42,4.26-.7,7.43,4.17,7.84,1.11.09,2.25.07,3.35-.07,5.52-.7,11.03-1.46,16.55-2.17,1.16-.15,2.36-.3,2.6-1.64.26-1.48-.84-2.35-2.02-2.75-5.8-1.94-11.49-4.77-17.86-1.93-1.61.72-2.64-.07-2.49-1.97,0,0,0,0,0,0,3.67.39,6.76-.66,9.06-3.66,0,0,0,0,0,0,5.24,0,10.42-.45,15.52-1.74,2.19-.56,4.09-1.67,4.6-3.89.55-2.4.7-4.94.67-7.41-.03-2.96-1.72-3.86-4.47-3.04-4.87,1.45-9.82,2.47-14.92,1.03-.52-.5-1.03-.99-1.55-1.49-1.25-2.22-3.21-3.75-5.11-5.35,0,0,0,0,0,0-.68-2.15-1.85-3.96-3.75-5.25,0,0,0,0,0,0-.07-1.48-1.29-2.95-.05-4.44,0,0,0,0,0,0,1.66-.02,3.5.5,4.49-1.51h0c3.42,0,6.75-.38,9.74-2.25h0c1.29-.03,2.7.54,3.72-.78,0,0,0,0,0,0,1.34.19,2.45-.08,3-1.48,0,0,0,0,0,0,1.96-.24,3.92-.49,5.88-.72,1.36-.16,2.42-.62,2.38-2.26h0c.24-.54.66-1.07.69-1.62.32-6.53.28-13.07-.27-19.58-.17-1.98-.03-4.28-1.9-5.8,0,0,0,0,0,0-.25-6.36-2.89-11.89-5.95-17.28-.43-6.21-.82-12.42-1.29-18.62-.2-2.62,1.01-2.78,2.91-1.79,4.53,2.36,6.64,6.92,9.61,10.7-.09,1.48.82,2.6,1.5,3.75,3.02,5.15,4.94,10.68,6.39,16.46,1.18,4.69.92,9.39.99,14.11.03,2.21.15,4.34,3.01,4.74,0,0,0,0,0,0,1.09,1.01,2.21,1.96,3.71,2.3,3.02,3.23,7.72,3.21,11.11,5.8,4.92,3.74,5.16,5.82,2.47,11.26-1.5,3.02-2.24,6.55-5.72,7.7-2.87.95-5.49,2.29-8.15,3.6-2.56,1.26-5.07,2.64-7.52,4.09-1.45.86-2.28,2.25-2.61,3.94-.65,3.3-1.62,6.57-1.96,9.9-.46,4.6-2.7,8.2-5.51,11.59-.89,1.07-1.99,2.05-1.42,3.6.63,1.72,2.22,1.37,3.53,1.3,3.46-.18,6.91.31,10.41-.63,3.28-.88,6.18,1.55,9.25,2.39,6.14,1.68,11.96,4.28,14.33,11.18.85,2.48,1.14,4.23-1.82,5.35-2.08.79-3.17,3.1-5.47,3.8-3.93,1.2-7.01-.64-10.12-2.5-4.01-2.62-8.74-2.13-13.16-2.87-2.39-.4-5.09-.38-7.39.32-11.35,3.43-22.73,5.75-34.64,3.28-3.56-.74-7.35-4.13-7.7-7.62-.35-3.45-.53-6.92-.78-10.37ZM637.65,61.36c.09,2.01-.33,4.3,2.73,4.26,2.36-.03,2.81-1.66,2.7-3.55-.12-2.13-.38-4.57-3.05-4.73-2.8-.16-2.18,2.35-2.38,4.02Z"/><path class="cls-21" d="M595.8,114.27c-.15,1.9.88,2.69,2.49,1.97,6.36-2.84,12.06-.02,17.86,1.93,1.18.4,2.28,1.27,2.02,2.75-.24,1.34-1.44,1.49-2.6,1.64-5.52.7-11.03,1.47-16.55,2.17-1.1.14-2.24.16-3.35.07-4.88-.41-6.59-3.58-4.17-7.84-2.16-1.26-3.45,1.65-5.4,1.12,2.59-2.91,6.19-3.24,9.71-3.79ZM614.76,121.24c-3.92-3.17-6.98-5.5-11.03-4.4-2.8.77-5.61,1.12-8.46,1.33-1.24.09-2.69-.08-3.11,1.46-.47,1.75,1.2,2.27,2.19,3.09.92.77,2.16.73,3.24.55,5.37-.91,10.71-2.06,17.18-2.03Z"/><path class="cls-21" d="M581.53,122.49c.25,3.46.43,6.93.78,10.37.36,3.49,4.14,6.88,7.7,7.62,11.91,2.47,23.29.15,34.64-3.28,2.3-.7,4.99-.72,7.39-.32,4.42.74,9.14.26,13.16,2.87-11.35-2.77-22.47-1.21-33.52,1.78-7.93,2.15-15.87,1.43-23.67-.49-3.04-.75-5.47-3.31-6.22-6.46-.76-3.23-.3-6.69-1.44-9.94-.24-.7.28-1.71,1.16-2.17Z"/><path class="cls-21" d="M606.25,95.56c5.09,1.44,10.04.41,14.92-1.03,2.75-.82,4.44.08,4.47,3.04.03,2.47-.12,5.01-.67,7.41-.51,2.21-2.41,3.33-4.6,3.89-5.1,1.29-10.28,1.74-15.52,1.74,3.94-1.5,8.13-1.73,12.23-2.21,6.26-.74,9.33-4.88,7.6-10.86-.41-1.42-1.58-1.49-2.7-1.35-3.19.4-6.36.93-9.55,1.35-2.35.31-4.78.77-6.18-1.97Z"/><path class="cls-7" d="M640.7,55.1c-2.86-.4-2.98-2.53-3.01-4.74-.07-4.72.19-9.42-.99-14.11-1.45-5.78-3.37-11.31-6.39-16.46-.68-1.15-1.59-2.27-1.5-3.75,5.67,7.04,8.62,15.19,9.6,24.08.28,2.58.25,5.22.07,7.82-.19,2.74.37,5.12,2.23,7.16Z"/><path class="cls-21" d="M623.53,43.03c1.87,1.52,1.74,3.82,1.9,5.8.55,6.51.59,13.05.27,19.58-.03.55-.45,1.08-.69,1.62.01-9.03.45-18.08-1.48-27Z"/><path class="cls-21" d="M617.57,25.76c3.07,5.39,5.7,10.92,5.95,17.28-1.89-5.79-4.49-11.34-5.95-17.28Z"/><path class="cls-21" d="M604.85,110.61c-2.3,3-5.39,4.05-9.06,3.66,3.02-1.22,6.04-2.44,9.06-3.66Z"/><path class="cls-21" d="M610.02,75.28c-2.99,1.87-6.32,2.25-9.74,2.25,3.12-1.3,6.25-2.54,9.74-2.25Z"/><path class="cls-21" d="M625.01,70.03c.04,1.63-1.01,2.1-2.38,2.26-1.96.23-3.92.48-5.88.72.66-1.62,2.11-1.57,3.45-1.49,1.83.11,3.37-.46,4.81-1.49Z"/><path class="cls-21" d="M599.59,88.72c1.9,1.6,3.87,3.13,5.11,5.35-2.48-1.04-4.36-2.66-5.11-5.35Z"/><path class="cls-21" d="M595.84,83.48c1.9,1.29,3.06,3.09,3.75,5.25-1.99-1.22-3.19-3-3.75-5.25Z"/><path class="cls-21" d="M595.79,79.04c-1.24,1.5-.02,2.96.05,4.44-1.73-1.46-3.09-2.93-.05-4.44Z"/><path class="cls-21" d="M600.28,77.53c-.99,2.01-2.83,1.49-4.49,1.51,1.31-1.05,2.8-1.58,4.49-1.51Z"/><path class="cls-7" d="M644.41,57.4c-1.5-.33-2.62-1.29-3.71-2.3,1.85-.23,3.11.51,3.71,2.3Z"/><path class="cls-21" d="M616.75,73.01c-.55,1.41-1.66,1.68-3,1.48.57-1.37,1.77-1.45,3-1.48Z"/><path class="cls-21" d="M613.74,74.5c-1.02,1.31-2.43.75-3.72.78,1.07-1.1,2.45-.66,3.72-.78Z"/><path class="cls-21" d="M586.09,118.06c-.53.99-1.14,1.89-2.37,2.08.29-1.27.97-2.09,2.37-2.08Z"/><path class="cls-11" d="M89.68,77.72c6.76,2.82,8.68,8.63,10.7,14.09,2.41,6.53,2.88,13.55,4.13,20.38.22,1.22.34,2.98,1.69,3.05,2.58.14,5.27-.29,7.29-2.15,2.05-1.87,3.01-4.48,4.2-6.95,2.63-5.47,5.42-10.86,8.16-16.28,1.65-3.26.12-5.67-3.55-5.48-1.23.07-2.53.15-3.67.57-5.61,2.06-10.34.08-15.01-3.23,3.11-.59,6.04-1.46,8.95-2.51,4.06-1.46,7.64-4.09,12.04-4.76,1.15-.18,2.25-1.54,3.11-2.58,4.62-5.6,9.68-6.12,15.31-1.47,5.58,4.61,5.8,5.39,3.27,12.46-3.02,8.41-8.42,15.38-13.81,22.3-2.58,3.31-2.7,3.73,1.2,5.26,2.32.91,3.96,2.51,4.24,5.16.38,3.64.92,7.53-2.16,10.16-2.03,1.73-4.68.18-6.64-.9-6.05-3.31-12.19-3.74-18.66-1.64-2.02.66-1.88,2.19-1.53,3.64.54,2.23.55,4.46.47,6.7-.06,1.74-.82,3.16-2.51,3.84-1.64.66-2.48-.6-3.45-1.56-3.96-3.95-8.54-7.47-9.19-13.63-.16-1.48-.5-3.1-.09-4.45,2.43-7.82.77-15.57.06-23.37-.52-5.68-2.08-11.07-4.55-16.66Z"/><path class="cls-11" d="M54.75,88c.06-.22.11-.43.14-.65,1.32-.67,1.47-1.91,1.5-3.17.05-2.45,1.11-4.46,2.98-6.95-.25,4.13-.79,7.52-1.38,10.92-.32,1.85-1.06,4.15.99,5.48,2.07,1.35,3.35-.75,4.85-1.66,2.72-1.65,5.25-3.41,4.5-7.26-.2-1.05.68-1.49,1.45-1.92.21.06.43.09.65.1,2.06,1.32,5.11-.37,6.74,2.24.34,1.52-.73,2.49-1.4,3.62-1.11.73-2.17,1.5-2.26,3-2.18,3.29-5.58,5.33-8.56,7.65-2.43,1.9-4.71,4.03-7.27,5.79-1.52,1.05-1.86,2.63-2.21,4.47-1.89,9.66-2.73,19.59-6.07,28.89-1.61,4.5-4.3,8.64-6.72,12.81-2.25,3.88-5.32,4.23-8.39,1.16-1.3-1.31-2.35-1.64-4.23-.73-2.87,1.39-5.54.54-7.58-2.06-2.11-2.69-1.92-3.35,1.32-4.24,2.31-.64,3.83-2.37,5.06-4.21,4.81-7.2,9.33-14.54,12.7-22.59,1.34-3.2-.34-3.75-2.2-3.01-4.88,1.93-10.25,2.74-14.55,6.06-5.48,2.4-10.88,5.02-16.49,7.07-2.08.76-4.67-.6-5.91-2.35-1.71-2.41-1.55-5.56-.4-8.21.47-1.08,1.12-2.34,1.82-3.41.82.27.58.85.51,1.22-1.01,5.36,1.14,7.49,6.14,5.5,8.48-3.36,17.46-5.73,24.98-11.11,4.54-3.24,9.88-5.19,14-9.04,2.06-1.75,2.45-4.25,3.05-6.67,0,0,0,0,0,0,2.6-1.64,2.22-4.26,2.22-6.75Z"/><path class="cls-1" d="M58.56,113.14c3.79,3.1,7.99,5.13,10.55,10.17,3.96,7.8,7.79,15.59,10.89,23.77,1,2.64.07,6.71-1.85,7.48-2.01.81-6.65-1.15-7.71-3.31-2.55-5.16-4.03-10.55-4.57-16.36-.72-7.7-2.68-15.14-7.31-21.76Z"/><path class="cls-21" d="M77.17,85.13c-1.63-2.6-4.68-.92-6.74-2.24,2.28.65,5.7-2.14,6.74,2.24Z"/><path class="cls-21" d="M73.51,91.76c.08-1.5,1.14-2.27,2.26-3-.02,1.55-1.1,2.31-2.26,3Z"/><path class="cls-1" d="M577.04,52.02c2.64.35,3.91-1.98,5.68-3.16,1.69-1.13,3.12-1.24,4.86-.74,5.84,1.66,8.36,6.78,6.22,12.6-.21.56-.18,1.21-.27,1.82h0c-2.82,2.96-5.79,5.79-8.43,8.9-5.76,6.79-12.42,12.67-19.33,18.13-5.61,4.43-11.93,7.71-15.57,14.45-2.65,4.91-2.77,6.04,2.76,8.88.25.24.5.49.76.73,3.58,3.87,4.73,3.75,7.2-.73.41-.75.81-1.5,1.22-2.25.88-.57.38-2.63,2.03-2.19,1.43.38,1.57,1.88,1.49,3.12-.2,2.98-.11,6.08-.94,8.89-2.49,8.53-1.29,16.73,1.56,24.83,1.03,2.91,1.14,5.85,1.1,8.85-.01,1.09-.28,1.95-1.61,2.06-2.71.21-5.42.48-8.13.72-.55-.71-1.1-1.42-1.65-2.13.51-1.64-.58-2.74-1.32-3.96-.04-1.62-.07-3.17-1.15-4.61-.83-1.12-.83-2.66-.41-3.98,2.26-7.03-.73-13.71-1.5-20.5-.21-1.82-.62-3.88-1.28-5.75-1.38-3.91-3.77-4.53-7.04-2.05-3.26,2.46-4.32,6.26-6.47,9.38-5.08,7.36-10.78,14.26-15.4,21.99-2.49,4.17-3.62,8.68-5.13,13.1-.94,2.74-2.6,3.33-5.13,3.01-2.92-.36-2.08-2.57-2.25-4.3-.6-6.13.7-11.32,4.83-16.45,5.07-6.31,9.85-12.85,15.58-18.59,8.52-8.53,14.61-18.87,21.5-28.62,4.37-6.19,8.13-12.87,13.77-18.1,1.12-1.04,1.74-2.29.78-3.63-1.04-1.44-2.25-.38-3.3.18-4.78,2.56-8.61,6.45-12.48,10.06-2.96,2.76-5.58,5.55-9.55,6.69-.86.25-1.54.8-1.98,1.62-2.78.97-5.66.57-8.5.69-1.43.06-2.51-.62-3.11-1.7-2.36-4.22-4.76-8.43-2.44-13.59.8-1.78.95-3.83,1.51-5.73.21-.73.85-1.31,1.69-1.22,1.03.11.84,1.02.95,1.73.84,5.47,2.45,5.81,7.66,3.93,6.77-2.44,13.45-4.92,19.49-8.88,1.03-.68,2.05-1.38,3.07-2.06,1.89-.05,3.39-.92,4.69-2.23.42-.31.84-.61,1.26-.92,1.6.12,2.3-1.15,3.21-2.1.43-.29.86-.58,1.29-.86,1.37.24,2.34-.38,3.1-1.45,2.29-.5,3.38-2.61,5.14-3.83ZM557.09,89.75c1.61.98,2.74.21,3.76-.4,5.2-3.11,9.48-7.48,13.75-11.6,4.63-4.46,8.93-9.35,13.56-13.87,2.21-2.16,2.67-4.83,2.8-7.46.19-4-4.36-6.95-7.06-4.64-4.79,4.09-10.41,6.66-15.82,9.62-6.93,3.8-12.13,10.8-20.86,11.3-.3.02-.55.49-.87.68-5.3,3.09-10.98,4.83-17.14,4.48-1.4-.08-2.62-.31-2.95,1.25-.5,2.42.05,4.75,1.73,6.61,1.46,1.62,3.15,2.68,5.61,1.95,5.49-1.63,10.57-3.8,14.76-7.97,3.93-3.92,7.22-8.56,12.45-11.12,3.83-1.88,7.61-.6,8.51,3.37.66,2.89-1.32,4.74-3.32,6.14-4.25,2.99-6.35,7.42-8.9,11.64ZM513.06,149.76c2.56,0,6.9-6.26,6.22-8.82-.39-1.47-1.18-.94-1.89-.32-2.29,2-3.81,4.55-5.08,7.27-.44.93-.37,1.69.75,1.87ZM530.41,126.29c-5.65,3.29-8.56,7.13-8.99,11.65,3.94-3.35,5.98-7.87,8.99-11.65Z"/><path class="cls-12" d="M554.67,150.82c.74,1.22,1.84,2.32,1.32,3.96-.88-.48-1.42-1.18-1.47-2.21.05-.58.1-1.17.15-1.75Z"/><path class="cls-12" d="M557.64,156.91c2.71-.24,5.42-.51,8.13-.72,1.34-.1,1.6-.97,1.61-2.06.04-3-.07-5.93-1.1-8.85-2.85-8.1-4.05-16.3-1.56-24.83.82-2.82.74-5.92.94-8.89.08-1.23-.06-2.74-1.49-3.12-1.65-.43-1.14,1.63-2.03,2.19-.04-.57-.09-1.14-.13-1.71,1.12-4.26,1.34-8.85,4.53-12.36,1.04-1.15,2.25-2.15,3.89-1.69,3.31.91,6.68.48,10.02.68,2.44.14,10.1,5.85,10.66,8.05.42,1.67.24,3.78-1.54,4.11-2.42.44-4.28,1.86-6.47,2.56-1.89.61-3.82.47-5.63-.92-2.72-2.1-4.77-4.69-6.65-7.5-.54-.81-1.18-1.8-2.35-1.51-1.18.29-1.86,1.19-2,2.43-.17,1.48-.84,3.15-.39,4.41,1.83,5.02.28,9.87-.45,14.7-1.25,8.28-.91,16.29,2.05,24.22.98,2.63,1.09,5.59,1.59,8.41.2,1.1-.15,1.96-1.17,2.5-2.01.29-4.17-.76-6.05.7,0,0,0,0,0,0-1.31.05-2.61.09-3.92.14l-.49-.94ZM571.23,96.26c-.63,0-1,0-1.38,0-1.41-.03-2.7.6-2.85,1.9-.18,1.6,1.44.84,2.25,1.06,1.5.4,2.02,1.66,2.89,2.72,6.24,7.69,6.71,8.69,15.29,5.36,1.77-.69,2.7-1.81,2.21-3.7-.46-1.8-6.95-6.58-9-6.66-3.23-.12-6.49.15-9.42-.67Z"/><path class="cls-16" d="M552.96,112.89c-5.53-2.84-5.41-3.97-2.76-8.88,3.65-6.74,9.96-10.02,15.57-14.45,6.91-5.46,13.57-11.34,19.33-18.13,2.64-3.11,5.61-5.94,8.43-8.9.1,1.38-.72,2.39-1.56,3.27-7.11,7.45-14,15.11-21.95,21.75-3.83,3.2-7.94,5.89-12.08,8.6-3.98,2.61-5.24,7.42-8.18,10.92-.74.88.25,2.09.95,2.98.74.95,2.12,1.4,2.24,2.83Z"/><path class="cls-16" d="M562.01,108.92c.04.57.09,1.14.13,1.71-.41.75-.81,1.5-1.22,2.25-2.47,4.48-3.63,4.6-7.2.73q4.53,1.49,8.29-4.69Z"/><path class="cls-16" d="M562.06,157.71c1.87-1.46,4.04-.41,6.05-.7-1.87,1.49-4.05.34-6.05.7Z"/><path class="cls-16" d="M558.13,157.86c1.31-.05,2.61-.09,3.92-.14-1.27,1.17-2.57,1.13-3.92.14Z"/><path class="cls-8" d="M356.56,121.66c.19-2.26-1.5-4.76.84-6.75-.33,2.25,1.2,4.72-.84,6.75Z"/><path class="cls-4" d="M35.78,30.79c5.67-1.89,10.46,1.39,15.65,1.48,2.48.05,5.03,6.8,3.73,10.02-1.14,2.83-1.38,5.77-2.22,8.61-.25.84-.9,1.65.05,2.31.75.52,1.82.51,2.47-.07,2.09-1.86,4.82-2.43,7.15-3.8,4.36-2.55,10.62-1.39,13.82,2.4.88,1.04.81,2.14.17,3.1-1.63,2.45-3.02,5.01-6.01,6.39-6.82,3.15-13.12,7.41-20.46,9.48-1.27.36-2.4,1.26-3.52,2.03-2.88,1.98-2.9,2.01-3.97-.98-.35-.96-1.06-.89-1.78-.94-1.81-.12-4.29.7-5.03-1.39-.9-2.52-1.26-5.49-.04-8.04,3.42-7.17,4.71-14.77,4.95-22.59.14-4.36,0-4.37-4.95-8.01Z"/><path class="cls-16" d="M563.05,61.18c-1.29,1.31-2.8,2.18-4.69,2.23,1.23-1.44,2.8-2.17,4.69-2.23Z"/><path class="cls-16" d="M567.52,58.17c-.91.94-1.6,2.22-3.21,2.1.75-1.19,1.54-2.32,3.21-2.1Z"/><path class="cls-16" d="M571.91,55.85c-.76,1.07-1.73,1.69-3.1,1.45.81-.95,1.81-1.51,3.1-1.45Z"/><path class="cls-21" d="M52.53,94.75c-.6,2.41-1,4.92-3.05,6.67.35-1.41.7-2.82,1.05-4.23.67-.81,1.34-1.62,2-2.44Z"/><path class="cls-11" d="M336.45,38.51c-1,2.93-2.18,5.79-2.01,9.02.1,1.96-1.02,3.42-2.95,3.78-1.78.33-3.98.81-4.87-1.5-1.55-3.99-4.68-5-8.49-5.07-1.82-.04-2.97-1.27-3.83-2.65-.88-1.41-2.13-2.4-3.29-3.52.12-1.18-.85-1.72-1.45-2.48-.8-1.02-2.62-1.71-1.82-3.31.81-1.62,2.42-.68,3.71-.49,6.22.92,11.51-.99,15.97-5.3,1.2-1.16,3.28-17.4,2.43-18.74-.46-.72-1.2-1.26-1.76-1.93-.58-.68-2.19-.5-1.75-1.99.39-1.32,1.45-2.05,2.71-2.34,3.16-.73,6.2.17,9.11,1.17,1.4.48,2.25,1.91,1.59,3.71-.72,1.97-1.28,4-1.98,5.97-.81,2.26-.02,3.48,2.23,4.18,3.04.94,4.85,5.32,3.3,8.14-1.12,2.05-2,4.32-4.01,5.77-2.61,1.9-3.36,4.5-2.84,7.58Z"/><path class="cls-21" d="M54.75,88c0,2.49.38,5.11-2.22,6.75.74-2.25,1.48-4.5,2.22-6.75Z"/><path class="cls-13" d="M340.07,66.39c3.51.16,3.26,2.91,3.55,4.91.24,1.67-1.3,2.4-2.75,2.03-2.55-.66-5.79-1.12-6.55-3.75-.25-.84,3.43-2.96,5.76-3.19ZM342.3,70.69c-.26-1.13.2-2.91-1.87-2.93-1.52-.01-3.58.59-3.5,2.02.09,1.6,2.6,1.35,3.87,2.33.99.76,1.44-.32,1.51-1.43Z"/><path class="cls-11" d="M557.09,89.75c2.56-4.22,4.65-8.65,8.9-11.64,2-1.4,3.98-3.25,3.32-6.14-.9-3.97-4.68-5.25-8.51-3.37-5.22,2.56-8.51,7.2-12.45,11.12-4.19,4.17-9.27,6.34-14.76,7.97-2.46.73-4.15-.33-5.61-1.95-1.68-1.86-2.23-4.19-1.73-6.61.32-1.57,1.55-1.33,2.95-1.25,6.16.35,11.84-1.4,17.14-4.48.32-.19.57-.66.87-.68,8.73-.5,13.93-7.51,20.86-11.3,5.42-2.97,11.04-5.53,15.82-9.62,2.7-2.31,7.25.64,7.06,4.64-.13,2.63-.59,5.3-2.8,7.46-4.62,4.52-8.93,9.41-13.56,13.87-4.27,4.12-8.55,8.48-13.75,11.6-1.02.61-2.15,1.38-3.76.4Z"/><path class="cls-11" d="M513.06,149.76c-1.13-.18-1.19-.94-.75-1.87,1.27-2.71,2.79-5.27,5.08-7.27.71-.62,1.5-1.14,1.89.32.68,2.56-3.65,8.82-6.22,8.82Z"/><path class="cls-11" d="M530.41,126.29c-3.01,3.78-5.05,8.3-8.99,11.65.43-4.52,3.34-8.36,8.99-11.65Z"/><path class="cls-3" d="M571.23,96.26c2.93.83,6.19.55,9.42.67,2.05.08,8.53,4.86,9,6.66.49,1.9-.44,3.02-2.21,3.7-8.58,3.33-9.06,2.32-15.29-5.36-.86-1.06-1.39-2.32-2.89-2.72-.82-.22-2.44.54-2.25-1.06.15-1.3,1.44-1.94,2.85-1.9.37,0,.75,0,1.38,0Z"/></svg>